<svg width="193" height="210" viewBox="0 0 193 210" fill="none" xmlns="http://www.w3.org/2000/svg">
<path d="M61.3782 131.556C60.4933 130.666 59.441 129.96 58.282 129.479C57.123 128.997 55.8802 128.75 54.6252 128.751C53.3702 128.752 52.1278 129.001 50.9696 129.485C49.8114 129.968 48.7603 130.676 47.8768 131.567C46.9934 132.459 46.2951 133.516 45.8222 134.679C45.3493 135.841 45.1111 137.086 45.1213 138.341C45.1316 139.596 45.3901 140.836 45.8819 141.991C46.3738 143.145 47.0893 144.191 47.9872 145.068C55.9926 152.993 66.1677 158.366 77.2265 160.509C88.2852 162.652 99.7311 161.469 110.117 157.108C120.503 152.747 129.363 145.405 135.577 136.01C141.792 126.614 145.081 115.587 145.029 104.323C144.978 93.0592 141.588 82.0622 135.288 72.7242C128.988 63.3862 120.061 56.1252 109.635 51.8602C99.2097 47.5942 87.7535 46.5152 76.7149 48.7602C65.6762 51.0042 55.5507 56.4702 47.6182 64.4682C46.7389 65.3552 46.043 66.4072 45.5703 67.5642C45.0976 68.7202 44.8573 69.9582 44.8631 71.2082C44.8689 72.4572 45.1207 73.6932 45.6042 74.8452C46.0876 75.9972 46.7932 77.0422 47.6807 77.9222C48.5681 78.8012 49.6201 79.4972 50.7765 79.9692C51.9329 80.4422 53.1711 80.6822 54.4204 80.6772C55.6696 80.6712 56.9055 80.4192 58.0575 79.9362C59.2095 79.4522 60.2549 78.7462 61.1342 77.8592C66.42 72.5262 73.1687 68.8792 80.5267 67.3812C87.8848 65.8832 95.5218 66.6012 102.472 69.4432C109.422 72.2852 115.374 77.1242 119.574 83.3492C123.774 89.5732 126.034 96.9032 126.069 104.412C126.103 111.921 123.91 119.272 119.767 125.534C115.624 131.797 109.717 136.691 102.793 139.596C95.8695 142.502 88.2394 143.289 80.8679 141.859C73.4964 140.428 66.7147 136.844 61.3802 131.559L61.3782 131.556Z" fill="url(#paint0_linear)"/>
<path d="M0.00124802 64.6302C0.0125528 70.8782 1.26306 77.0622 3.68042 82.8242C6.09777 88.5862 9.63394 93.8112 14.0842 98.1972C15.8737 99.9742 16.8852 102.388 16.8966 104.91C16.9081 107.432 15.9186 109.856 14.1452 111.649C5.28078 120.616 0.334944 132.733 0.392685 145.342C0.450426 157.951 5.50702 170.023 14.4532 178.908C29.1501 193.458 47.8308 203.324 68.1339 207.259C88.437 211.194 109.451 209.022 128.519 201.016C147.588 193.01 163.855 179.531 175.264 162.282C186.673 145.032 192.712 124.788 192.617 104.107C192.523 83.4262 186.299 63.2382 174.733 46.0942C163.167 28.9492 146.777 15.6192 127.637 7.78819C108.496 -0.0428118 87.4629 -2.02382 67.1966 2.09718C46.9303 6.21718 28.3405 16.2532 13.7772 30.9372C9.36734 35.3632 5.87912 40.6202 3.51447 46.4042C1.14982 52.1872 -0.0442771 58.3822 0.00124802 64.6302ZM27.2902 44.3302C39.2081 32.3022 54.4248 24.0792 71.0163 20.7002C87.6077 17.3212 104.828 18.9372 120.501 25.3452C136.174 31.7532 149.594 42.6642 159.066 56.7002C168.537 70.7352 173.634 87.2642 173.711 104.196C173.789 121.128 168.844 137.702 159.501 151.824C150.159 165.945 136.838 176.979 121.225 183.53C105.612 190.081 88.4064 191.855 71.7847 188.628C55.163 185.401 39.8716 177.317 27.8442 165.399C22.4765 160.067 19.4426 152.824 19.4079 145.258C19.3732 137.693 22.3406 130.422 27.6592 125.041C32.9782 119.662 35.9459 112.392 35.9115 104.826C35.877 97.2612 32.843 90.0192 27.4752 84.6882C22.0996 79.3612 19.0601 72.1162 19.0254 64.5482C18.9907 56.9802 21.9636 49.7082 27.2902 44.3322" fill="url(#paint1_linear)"/>
<path d="M104.939 104.585C104.939 96.0492 98.0198 89.1302 89.4843 89.1302C80.9487 89.1302 74.0293 96.0492 74.0293 104.585C74.0293 113.121 80.9487 120.04 89.4843 120.04C98.0198 120.04 104.939 113.121 104.939 104.585Z" fill="url(#paint2_linear)"/>
<defs>
<linearGradient id="paint0_linear" x1="202.726" y1="104.584" x2="0.589288" y2="104.584" gradientUnits="userSpaceOnUse">
<stop stop-color="#00CD9E"/>
<stop offset="1" stop-color="#38A3DC"/>
</linearGradient>
<linearGradient id="paint1_linear" x1="202.635" y1="104.585" x2="0.577845" y2="104.585" gradientUnits="userSpaceOnUse">
<stop stop-color="#00CD9E"/>
<stop offset="1" stop-color="#38A3DC"/>
</linearGradient>
<linearGradient id="paint2_linear" x1="202.8" y1="104.585" x2="0.587108" y2="104.585" gradientUnits="userSpaceOnUse">
<stop stop-color="#00AB9E"/>
<stop offset="1" stop-color="#38A3DC"/>
</linearGradient>
</defs>
</svg>
