<svg width="148" height="162" viewBox="0 0 148 162" fill="none" xmlns="http://www.w3.org/2000/svg">
<g clip-path="url(#clip0)">
<path d="M102.77 32.8662C92.5105 31.2339 80.8273 30.363 68.66 30.363C57.5247 30.363 46.7966 31.0913 37.1953 32.4648C37.1975 32.3177 37.1997 32.1708 37.2062 32.0238C37.4608 23.4914 41.0528 15.3968 47.2147 9.46994C53.3766 3.54311 61.6194 0.25431 70.1814 0.306458C78.7435 0.358606 86.9454 3.74757 93.0342 9.74901C99.1229 15.7504 102.616 23.8882 102.766 32.4231C102.768 32.5723 102.77 32.7193 102.77 32.8662Z" fill="#6C63FF"/>
<g opacity="0.1">
<path opacity="0.1" d="M74.2827 0.294281C69.7289 -0.318942 65.0966 0.0286148 60.6862 1.31442C56.2757 2.60023 52.1855 4.7956 48.6805 7.75824C45.1756 10.7209 42.3342 14.3847 40.3404 18.5122C38.3466 22.6397 37.245 27.1388 37.107 31.7179C37.1003 31.8649 37.0982 32.0119 37.096 32.1589C39.9485 31.7509 42.9024 31.4013 45.9349 31.1093C46.3058 23.4807 49.3439 16.2222 54.522 10.5935C59.7001 4.96473 66.6913 1.3209 74.2827 0.294281V0.294281Z" fill="white"/>
</g>
<path d="M117.114 35.4595C112.391 34.1831 107.601 33.1694 102.766 32.423C94.8401 31.1986 86.8501 30.4331 78.8358 30.1304C75.4974 29.9943 72.0974 29.9241 68.66 29.9241C65.9356 29.9241 63.2332 29.968 60.5682 30.0558C52.7507 30.286 44.9517 30.943 37.2062 32.0237C31.4726 32.8108 25.7947 33.9584 20.2063 35.4595C7.17628 39.051 3.05176e-05 43.8645 3.05176e-05 49.0115C3.05176e-05 54.1585 7.17629 58.972 20.2063 62.5635C29.3698 65.091 40.6678 66.8132 52.9783 67.603C58.0595 67.9321 63.3125 68.0989 68.66 68.0989C74.0251 68.0989 79.2957 67.9299 84.3924 67.6009C95.5958 66.879 105.961 65.385 114.636 63.213C114.682 63.1998 114.726 63.1888 114.772 63.1778C115.358 63.033 115.934 62.8817 116.504 62.7303C116.709 62.6732 116.911 62.6184 117.114 62.5635C117.125 62.5589 117.137 62.5552 117.149 62.5526C117.343 62.4999 117.534 62.4451 117.725 62.3924C118.108 62.2827 118.487 62.1752 118.859 62.0633C118.876 62.0589 118.892 62.0545 118.907 62.0502C119.231 61.9536 119.548 61.8571 119.862 61.7606C120.12 61.6794 120.375 61.6004 120.628 61.5192C120.813 61.46 120.996 61.4007 121.176 61.3415C121.308 61.2976 121.438 61.2559 121.566 61.2121C121.739 61.155 121.913 61.0958 122.085 61.0365C122.158 61.0124 122.23 60.9883 122.301 60.962C122.466 60.9071 122.626 60.8501 122.787 60.793C122.961 60.7316 123.135 60.668 123.306 60.6065C123.449 60.5561 123.592 60.5034 123.733 60.4508C123.852 60.4047 123.969 60.3608 124.088 60.3169C124.411 60.1963 124.728 60.0712 125.04 59.9484C125.197 59.8847 125.353 59.8233 125.507 59.7597C125.659 59.6982 125.813 59.6346 125.963 59.571C126.209 59.4679 126.451 59.3648 126.689 59.2616C126.803 59.209 126.92 59.1585 127.032 59.1103C127.118 59.0708 127.201 59.0335 127.287 58.994C127.349 58.9677 127.411 58.9391 127.47 58.9106C127.692 58.8097 127.912 58.7066 128.128 58.6035C128.955 58.2086 129.728 57.8049 130.445 57.3924C134.945 54.8233 137.32 51.9734 137.32 49.0115C137.32 43.8645 130.144 39.051 117.114 35.4595ZM116.995 62.1423C107.82 64.6719 96.4916 66.3942 84.1481 67.1774C79.1284 67.4955 73.9394 67.6601 68.66 67.6601C63.3983 67.6601 58.2267 67.4977 53.2225 67.1796C40.8593 66.3986 29.5128 64.6763 20.3251 62.1423C7.50198 58.6057 0.440159 53.9435 0.440159 49.0115C0.440875 48.5757 0.495588 48.1417 0.603058 47.7193C1.7253 43.2699 8.62873 39.1058 20.3251 35.8807C25.8713 34.3913 31.5057 33.2504 37.1953 32.4647C44.9873 31.3779 52.8334 30.7187 60.6981 30.4902C63.3213 30.4046 65.9753 30.3622 68.66 30.3629C72.0512 30.3629 75.405 30.4309 78.7015 30.5626C86.7625 30.8626 94.799 31.6318 102.77 32.8662C107.564 33.6093 112.313 34.6156 116.995 35.8807C128.689 39.1058 135.59 43.2677 136.715 47.7149C136.824 48.1385 136.879 48.5741 136.88 49.0115C136.88 53.9435 129.818 58.6057 116.995 62.1423V62.1423Z" fill="#3F3D56"/>
<path d="M137.195 49.2112C137.195 52.1423 134.772 54.9155 130.445 57.3925C129.726 57.8049 128.951 58.2086 128.128 58.6035C127.912 58.7066 127.692 58.8097 127.47 58.9107C127.41 58.9392 127.349 58.9677 127.287 58.994C127.201 59.0335 127.118 59.0708 127.032 59.1103C126.92 59.1586 126.803 59.209 126.689 59.2617C126.451 59.3648 126.209 59.4679 125.962 59.571C125.813 59.6347 125.659 59.6983 125.507 59.7597C125.353 59.8233 125.197 59.8848 125.04 59.9484C124.728 60.0713 124.411 60.1963 124.088 60.317C123.969 60.3609 123.852 60.4047 123.733 60.4508C123.592 60.5035 123.449 60.5561 123.306 60.6066C123.135 60.668 122.961 60.7316 122.787 60.7931C122.626 60.8501 122.466 60.9071 122.301 60.962C122.23 60.9883 122.158 61.0125 122.085 61.0366C121.913 61.0958 121.739 61.1551 121.566 61.2121C121.438 61.256 121.308 61.2977 121.176 61.3416C120.996 61.4008 120.813 61.46 120.628 61.5193C120.375 61.6004 120.12 61.6794 119.862 61.7606C119.548 61.8571 119.231 61.9537 118.907 62.0502C118.892 62.0546 118.876 62.059 118.859 62.0634C118.487 62.1753 118.108 62.2828 117.725 62.3925C117.534 62.4451 117.343 62.5 117.149 62.5526C117.137 62.5553 117.125 62.5589 117.114 62.5636C116.911 62.6184 116.709 62.6733 116.504 62.7303C115.936 62.8795 115.358 63.0309 114.772 63.1779C114.726 63.1889 114.682 63.1998 114.636 63.213C106.196 65.3148 95.8423 66.8462 84.3836 67.5855C79.3639 67.908 74.1307 68.0792 68.7546 68.0792C63.3301 68.0792 58.0528 67.9058 52.9936 67.5768C22.792 65.6132 0.314697 58.1362 0.314697 49.2112C0.317075 48.6681 0.400106 48.1284 0.561087 47.6096C0.574304 47.6469 0.587519 47.682 0.602994 47.7193C3.7432 55.9422 26.0292 62.5877 54.9456 64.209C59.3755 64.4591 63.9638 64.5886 68.66 64.5886C73.376 64.5886 77.9818 64.457 82.4293 64.2069C111.322 62.5789 133.586 55.9313 136.715 47.7149C136.768 47.5833 136.814 47.4516 136.853 47.32C137.076 47.9258 137.192 48.5658 137.195 49.2112V49.2112Z" fill="#3F3D56"/>
<path d="M20.1731 46.8496C16.5106 46.8496 12.6181 46.0641 12.6181 44.6081C12.6181 43.1521 16.5106 42.3666 20.1731 42.3666C23.8355 42.3666 27.728 43.1521 27.728 44.6081C27.728 46.0641 23.8355 46.8496 20.1731 46.8496ZM20.1731 42.8054C15.9802 42.8054 13.0582 43.7555 13.0582 44.6081C13.0582 45.4607 15.9802 46.4108 20.1731 46.4108C24.3659 46.4108 27.2879 45.4607 27.2879 44.6081C27.2879 43.7555 24.3659 42.8054 20.1731 42.8054V42.8054Z" fill="#3F3D56"/>
<path d="M35.7976 57.1612C32.1352 57.1612 28.2427 56.3756 28.2427 54.9197C28.2427 53.4637 32.1352 52.6782 35.7976 52.6782C39.4601 52.6782 43.3526 53.4637 43.3526 54.9197C43.3526 56.3756 39.4601 57.1612 35.7976 57.1612ZM35.7976 53.117C31.6048 53.117 28.6828 54.0671 28.6828 54.9197C28.6828 55.7723 31.6048 56.7224 35.7976 56.7224C39.9905 56.7224 42.9125 55.7723 42.9125 54.9197C42.9125 54.0671 39.9905 53.117 35.7976 53.117V53.117Z" fill="#3F3D56"/>
<path d="M117.001 46.8496C113.339 46.8496 109.446 46.0641 109.446 44.6081C109.446 43.1521 113.339 42.3666 117.001 42.3666C120.664 42.3666 124.556 43.1521 124.556 44.6081C124.556 46.0641 120.664 46.8496 117.001 46.8496ZM117.001 42.8054C112.808 42.8054 109.886 43.7555 109.886 44.6081C109.886 45.4607 112.808 46.4108 117.001 46.4108C121.194 46.4108 124.116 45.4607 124.116 44.6081C124.116 43.7555 121.194 42.8054 117.001 42.8054V42.8054Z" fill="#3F3D56"/>
<path d="M101.377 57.1612C97.7143 57.1612 93.8218 56.3756 93.8218 54.9197C93.8218 53.4637 97.7143 52.6782 101.377 52.6782C105.039 52.6782 108.932 53.4637 108.932 54.9197C108.932 56.3756 105.039 57.1612 101.377 57.1612ZM101.377 53.117C97.1838 53.117 94.2619 54.0671 94.2619 54.9197C94.2619 55.7723 97.1838 56.7224 101.377 56.7224C105.57 56.7224 108.492 55.7723 108.492 54.9197C108.492 54.0671 105.57 53.117 101.377 53.117V53.117Z" fill="#3F3D56"/>
<path d="M68.5872 61.9879C64.9247 61.9879 61.0322 61.2023 61.0322 59.7463C61.0322 58.2904 64.9247 57.5048 68.5872 57.5048C72.2496 57.5048 76.1421 58.2904 76.1421 59.7463C76.1421 61.2023 72.2496 61.9879 68.5872 61.9879ZM68.5872 57.9436C64.3943 57.9436 61.4724 58.8937 61.4724 59.7463C61.4724 60.599 64.3943 61.5491 68.5872 61.5491C72.78 61.5491 75.702 60.599 75.702 59.7463C75.702 58.8937 72.78 57.9436 68.5872 57.9436V57.9436Z" fill="#3F3D56"/>
<path d="M74.1567 108.1C79.2628 108.1 83.4021 103.973 83.4021 98.8823C83.4021 93.7917 79.2628 89.665 74.1567 89.665C69.0506 89.665 64.9113 93.7917 64.9113 98.8823C64.9113 103.973 69.0506 108.1 74.1567 108.1Z" fill="#2F2E41"/>
<path d="M70.641 104.938L66.1414 107.185L67.399 109.688L71.8987 107.442L70.641 104.938Z" fill="#2F2E41"/>
<path d="M67.9922 109.434C68.2591 109.031 67.6005 108.129 66.5213 107.419C65.4421 106.71 64.3509 106.462 64.0841 106.865C63.8172 107.269 64.4758 108.171 65.555 108.88C66.6342 109.59 67.7254 109.838 67.9922 109.434Z" fill="#2F2E41"/>
<path d="M77.6724 104.938L76.4147 107.442L80.9144 109.688L82.1721 107.185L77.6724 104.938Z" fill="#2F2E41"/>
<path d="M82.7584 108.88C83.8376 108.171 84.4961 107.269 84.2293 106.865C83.9625 106.462 82.8713 106.71 81.7921 107.419C80.7129 108.129 80.0543 109.031 80.3211 109.434C80.588 109.838 81.6792 109.59 82.7584 108.88Z" fill="#2F2E41"/>
<path d="M73.5094 99.7779C75.2545 99.7779 76.6692 98.3675 76.6692 96.6277C76.6692 94.8879 75.2545 93.4775 73.5094 93.4775C71.7643 93.4775 70.3496 94.8879 70.3496 96.6277C70.3496 98.3675 71.7643 99.7779 73.5094 99.7779Z" fill="white"/>
<path d="M74.278 96.0238C74.6876 95.6154 74.6853 94.9509 74.2728 94.5397C73.8603 94.1284 73.1938 94.1261 72.7842 94.5344C72.3746 94.9428 72.3769 95.6073 72.7894 96.0185C73.2019 96.4298 73.8684 96.4321 74.278 96.0238Z" fill="#3F3D56"/>
<path d="M81.4501 88.8548C81.5891 85.4424 78.6392 82.5521 74.8612 82.3991C71.0832 82.2462 67.9078 84.8884 67.7688 88.3008C67.6297 91.7132 70.2559 92.4885 74.0339 92.6415C77.8119 92.7945 81.311 92.2672 81.4501 88.8548Z" fill="#6C63FF"/>
<path d="M86.7794 103.709C87.3875 103.188 86.5324 101.201 84.8694 99.2695C83.2064 97.3383 81.3653 96.1946 80.7572 96.7151C80.1491 97.2355 81.0042 99.2231 82.6672 101.154C84.3302 103.086 86.1713 104.229 86.7794 103.709Z" fill="#2F2E41"/>
<path d="M65.6722 101.154C67.3352 99.2231 68.1903 97.2356 67.5822 96.7151C66.974 96.1946 65.1329 97.3383 63.4699 99.2695C61.8069 101.201 60.9518 103.188 61.5599 103.709C62.1681 104.229 64.0092 103.086 65.6722 101.154Z" fill="#2F2E41"/>
<path d="M76.696 102.515C76.796 103.063 76.6736 103.628 76.3557 104.086C76.0378 104.544 75.5504 104.857 75.0008 104.957C74.4511 105.057 73.8842 104.935 73.4248 104.618C72.9654 104.301 72.6511 103.815 72.551 103.267L72.5503 103.263C72.343 102.122 73.2281 101.718 74.373 101.511C75.5178 101.304 76.4887 101.373 76.696 102.515Z" fill="white"/>
<path d="M58.5371 108.687C58.4203 108.687 58.3084 108.641 58.2258 108.558C58.1433 108.476 58.0969 108.365 58.0969 108.248V82.3596C58.0969 82.2432 58.1433 82.1316 58.2258 82.0493C58.3084 81.967 58.4203 81.9208 58.5371 81.9208C58.6538 81.9208 58.7657 81.967 58.8483 82.0493C58.9308 82.1316 58.9772 82.2432 58.9772 82.3596V108.248C58.9772 108.365 58.9308 108.476 58.8483 108.558C58.7657 108.641 58.6538 108.687 58.5371 108.687Z" fill="#CCCCCC"/>
<path d="M51.9351 131.943C51.8184 131.943 51.7065 131.897 51.6239 131.814C51.5414 131.732 51.495 131.62 51.495 131.504V112.636C51.495 112.52 51.5414 112.408 51.6239 112.326C51.7064 112.244 51.8184 112.197 51.9351 112.197C52.0519 112.197 52.1638 112.244 52.2463 112.326C52.3289 112.408 52.3753 112.52 52.3753 112.636V131.504C52.3752 131.62 52.3289 131.732 52.2463 131.814C52.1638 131.897 52.0519 131.943 51.9351 131.943V131.943Z" fill="#CCCCCC"/>
<path d="M68.8801 116.366C68.7633 116.366 68.6514 116.32 68.5689 116.237C68.4863 116.155 68.4399 116.043 68.4399 115.927V90.0384C68.4399 89.922 68.4863 89.8104 68.5688 89.7281C68.6514 89.6458 68.7633 89.5996 68.8801 89.5996C68.9968 89.5996 69.1087 89.6458 69.1913 89.7281C69.2738 89.8104 69.3202 89.922 69.3202 90.0384V115.927C69.3202 116.043 69.2738 116.155 69.1913 116.237C69.1087 116.32 68.9968 116.366 68.8801 116.366Z" fill="#CCCCCC"/>
<path d="M62.4982 135.014C62.3815 135.014 62.2696 134.968 62.187 134.886C62.1045 134.804 62.0581 134.692 62.0581 134.576V124.045C62.0581 123.928 62.1045 123.817 62.187 123.734C62.2695 123.652 62.3815 123.606 62.4982 123.606C62.615 123.606 62.7269 123.652 62.8094 123.734C62.892 123.817 62.9384 123.928 62.9384 124.045V134.576C62.9384 134.692 62.892 134.804 62.8094 134.886C62.7269 134.968 62.615 135.014 62.4982 135.014V135.014Z" fill="#CCCCCC"/>
<path d="M71.5208 81.0432C71.4041 81.0432 71.2921 80.997 71.2096 80.9147C71.1271 80.8324 71.0807 80.7208 71.0807 80.6044V70.0734C71.0807 69.9571 71.1271 69.8455 71.2096 69.7632C71.2921 69.6809 71.4041 69.6346 71.5208 69.6346C71.6376 69.6346 71.7495 69.6809 71.832 69.7632C71.9146 69.8455 71.961 69.9571 71.961 70.0734V80.6044C71.9609 80.7208 71.9146 80.8324 71.832 80.9147C71.7495 80.997 71.6375 81.0432 71.5208 81.0432V81.0432Z" fill="#CCCCCC"/>
<path d="M49.5144 85.6505C49.3977 85.6505 49.2857 85.6042 49.2032 85.522C49.1206 85.4397 49.0743 85.3281 49.0742 85.2117V74.6807C49.0742 74.5644 49.1206 74.4528 49.2032 74.3705C49.2857 74.2882 49.3976 74.2419 49.5144 74.2419C49.6311 74.2419 49.7431 74.2882 49.8256 74.3705C49.9081 74.4528 49.9545 74.5644 49.9545 74.6807V85.2117C49.9545 85.3281 49.9081 85.4397 49.8256 85.522C49.7431 85.6042 49.6311 85.6505 49.5144 85.6505V85.6505Z" fill="#CCCCCC"/>
<path d="M87.8055 86.7475C87.6888 86.7475 87.5768 86.7012 87.4943 86.6189C87.4118 86.5367 87.3654 86.4251 87.3654 86.3087V75.7777C87.3654 75.6613 87.4118 75.5497 87.4943 75.4674C87.5768 75.3852 87.6888 75.3389 87.8055 75.3389C87.9222 75.3389 88.0342 75.3852 88.1167 75.4674C88.1993 75.5497 88.2456 75.6613 88.2456 75.7777V86.3087C88.2456 86.4251 88.1993 86.5367 88.1167 86.6189C88.0342 86.7012 87.9222 86.7475 87.8055 86.7475Z" fill="#CCCCCC"/>
<path d="M86.9253 119.657C86.8086 119.657 86.6966 119.611 86.6141 119.528C86.5315 119.446 86.4852 119.334 86.4852 119.218V106.493C86.4852 106.377 86.5315 106.265 86.6141 106.183C86.6966 106.1 86.8086 106.054 86.9253 106.054C87.042 106.054 87.154 106.1 87.2365 106.183C87.319 106.265 87.3654 106.377 87.3654 106.493V119.218C87.3654 119.334 87.319 119.446 87.2365 119.528C87.154 119.611 87.042 119.657 86.9253 119.657Z" fill="#CCCCCC"/>
<path d="M78.1227 130.846C78.006 130.846 77.8941 130.8 77.8115 130.717C77.729 130.635 77.6826 130.523 77.6826 130.407V111.539C77.6826 111.423 77.729 111.311 77.8115 111.229C77.8941 111.147 78.006 111.1 78.1227 111.1C78.2395 111.1 78.3514 111.147 78.434 111.229C78.5165 111.311 78.5629 111.423 78.5629 111.539V130.407C78.5629 130.523 78.5165 130.635 78.434 130.717C78.3514 130.8 78.2395 130.846 78.1227 130.846Z" fill="#CCCCCC"/>
<path d="M79.8833 98.5948C79.7665 98.5948 79.6546 98.5486 79.5721 98.4663C79.4895 98.384 79.4432 98.2724 79.4431 98.156V72.2674C79.4431 72.151 79.4895 72.0394 79.572 71.9571C79.6546 71.8748 79.7665 71.8286 79.8833 71.8286C80 71.8286 80.1119 71.8748 80.1945 71.9571C80.277 72.0394 80.3234 72.151 80.3234 72.2674V98.156C80.3234 98.2724 80.277 98.384 80.1945 98.4663C80.1119 98.5486 80 98.5948 79.8833 98.5948Z" fill="#CCCCCC"/>
<path d="M133.841 153.684C134.471 153.158 133.62 151.11 131.94 149.11C130.26 147.109 128.387 145.914 127.757 146.44C127.127 146.965 127.979 149.013 129.659 151.014C131.339 153.015 133.212 154.21 133.841 153.684Z" fill="#2F2E41"/>
<path d="M129.71 151.409C131.365 146.459 128.682 141.108 123.716 139.457C118.75 137.807 113.383 140.483 111.728 145.433C110.072 150.384 112.756 155.735 117.722 157.385C122.687 159.035 128.055 156.36 129.71 151.409Z" fill="#2F2E41"/>
<path d="M124.73 155.837H121.851V160.98H124.73V155.837Z" fill="#2F2E41"/>
<path d="M118.972 155.837H116.092V160.98H118.972V155.837Z" fill="#2F2E41"/>
<path d="M122.331 161.937C123.656 161.937 124.73 161.535 124.73 161.04C124.73 160.544 123.656 160.143 122.331 160.143C121.006 160.143 119.932 160.544 119.932 161.04C119.932 161.535 121.006 161.937 122.331 161.937Z" fill="#2F2E41"/>
<path d="M116.572 161.817C117.898 161.817 118.972 161.415 118.972 160.92C118.972 160.425 117.898 160.023 116.572 160.023C115.247 160.023 114.173 160.425 114.173 160.92C114.173 161.415 115.247 161.817 116.572 161.817Z" fill="#2F2E41"/>
<path d="M117.743 136.544C118.589 133.146 122.325 131.147 126.087 132.078C129.848 133.009 132.212 136.519 131.366 139.916C130.519 143.314 127.712 143.325 123.95 142.394C120.188 141.462 116.897 139.942 117.743 136.544Z" fill="#CCCCCC"/>
<path d="M114.326 146.062C114.678 145.321 113.046 143.815 110.681 142.697C108.317 141.579 106.114 141.272 105.762 142.012C105.41 142.753 107.042 144.259 109.406 145.377C111.771 146.495 113.973 146.802 114.326 146.062Z" fill="#2F2E41"/>
<path d="M119.302 149.578C121.047 149.578 122.462 148.167 122.462 146.428C122.462 144.688 121.047 143.277 119.302 143.277C117.557 143.277 116.142 144.688 116.142 146.428C116.142 148.167 117.557 149.578 119.302 149.578Z" fill="white"/>
<path d="M118.003 146.348C118.585 146.348 119.056 145.878 119.056 145.298C119.056 144.718 118.585 144.248 118.003 144.248C117.422 144.248 116.95 144.718 116.95 145.298C116.95 145.878 117.422 146.348 118.003 146.348Z" fill="#3F3D56"/>
<path d="M119.275 154.321C120.004 154.321 120.595 153.732 120.595 153.005C120.595 152.278 120.004 151.688 119.275 151.688C118.545 151.688 117.954 152.278 117.954 153.005C117.954 153.732 118.545 154.321 119.275 154.321Z" fill="white"/>
<path d="M147.78 162H95.8448C95.7865 162 95.7305 161.977 95.6892 161.936C95.6479 161.895 95.6248 161.839 95.6248 161.781C95.6248 161.722 95.6479 161.667 95.6892 161.625C95.7305 161.584 95.7865 161.561 95.8448 161.561H147.78C147.838 161.561 147.894 161.584 147.936 161.625C147.977 161.667 148 161.722 148 161.781C148 161.839 147.977 161.895 147.936 161.936C147.894 161.977 147.838 162 147.78 162Z" fill="#3F3D56"/>
</g>
<defs>
<clipPath id="clip0">
<rect width="148" height="162" fill="white"/>
</clipPath>
</defs>
</svg>
