<svg width="398" height="305" viewBox="0 0 398 305" fill="none" xmlns="http://www.w3.org/2000/svg">
<g clip-path="url(#clip0)">
<path opacity="0.1" d="M388.355 207.373C387.998 207.633 387.67 207.886 387.321 208.131C386.032 209.041 384.682 209.863 383.281 210.59C375.943 214.452 366.897 216.338 358.086 217.619C338.326 220.494 318.151 221.053 298.062 221.601C243.783 223.088 189.371 224.572 135.223 221.145C113.829 219.793 91.9649 217.53 72.5785 210.59C69.7997 209.599 67.0756 208.505 64.4061 207.309C59.0041 204.886 53.8161 201.936 49.5017 198.413C45.4476 195.111 42.1601 191.317 40.1954 187.004C36.0985 178.022 38.2664 167.934 42.9445 159.13C44.8874 155.568 47.0786 152.147 49.5017 148.892C53.1137 143.934 57.0965 139.12 60.7299 134.166C73.6589 116.558 82.0952 94.2814 70.161 76.2215C66.7309 71.0331 61.7746 66.4781 58.9792 61.0619C55.4135 54.1333 55.6881 46.4397 56.822 38.9666C56.9694 38.0176 57.1251 37.0782 57.2891 36.1482C59.2252 25.0667 62.8693 13.1277 74.1046 6.20974C85.775 -0.978616 102.348 -0.615639 116.832 1.93943C139.356 5.95353 160.133 14.3091 181.131 21.8533C202.129 29.3975 224.097 36.2905 247.174 37.0307C267.551 37.6855 291.32 32.7853 304.844 20.0491C317.98 7.67944 342.672 6.73642 360.468 14.2095C372.684 19.3374 381.798 28.5755 385.641 38.9666C386.42 41.0528 386.98 43.2136 387.314 45.4148C387.622 47.4264 387.722 49.4643 387.613 51.4964C387.56 52.4999 387.456 53.4928 387.314 54.475C384.34 74.9796 362.936 91.1534 349.925 109.469C343.567 118.416 339.078 129.163 343.449 138.81C350.117 153.511 373.304 158.738 387.307 169.677C389.942 171.668 392.262 174.043 394.188 176.723C400.981 186.46 398.474 199.609 388.355 207.373Z" fill="#18AD6F"/>
<path d="M91.9899 115.605C91.9899 115.605 75.588 86.5948 50.871 78.2393C40.4985 74.7305 31.4454 68.1328 25.2554 59.1154C22.325 54.834 19.7946 50.2932 17.6963 45.55" stroke="#535461" stroke-width="2" stroke-miterlimit="10"/>
<path d="M2.1536 40.1801C4.97046 42.8953 18.0849 45.7422 18.0849 45.7422C18.0849 45.7422 14.8758 32.7462 12.0518 30.0167C10.6943 28.7338 8.885 28.0365 7.01589 28.0758C5.14679 28.1151 3.3685 28.8879 2.06639 30.2268C0.764288 31.5656 0.0432727 33.3627 0.0595975 35.2284C0.0759222 37.0942 0.828272 38.8784 2.1536 40.1943V40.1801Z" fill="#18AD6F"/>
<path d="M9.57376 63.6988C13.4211 64.4604 25.9757 59.7168 25.9757 59.7168C25.9757 59.7168 16.188 50.5498 12.3371 49.7883C10.5069 49.4667 8.62331 49.8733 7.08996 50.9211C5.5566 51.969 4.49552 53.5746 4.13412 55.3938C3.77271 57.2131 4.13975 59.1013 5.15656 60.6537C6.17337 62.2061 7.75905 63.2993 9.57376 63.6988V63.6988Z" fill="#18AD6F"/>
<path d="M36.5834 89.157C40.2917 87.8759 48.7066 77.4599 48.7066 77.4599C48.7066 77.4599 35.6278 74.4743 31.9231 75.7554C31.0141 76.0372 30.1711 76.4984 29.4441 77.1117C28.7171 77.7249 28.121 78.4776 27.6911 79.3252C27.2612 80.1728 27.0063 81.0979 26.9415 82.0457C26.8767 82.9935 27.0034 83.9446 27.314 84.8426C27.6246 85.7405 28.1128 86.5671 28.7496 87.2732C29.3864 87.9793 30.1588 88.5504 31.0211 88.9529C31.8833 89.3553 32.8178 89.5807 33.769 89.6158C34.7202 89.6509 35.6688 89.4949 36.5584 89.157H36.5834Z" fill="#18AD6F"/>
<path d="M61.3646 103.815C65.2368 103.174 75.3062 94.3313 75.3062 94.3313C75.3062 94.3313 62.9227 89.182 59.0505 89.8189C57.1908 90.1252 55.5292 91.1562 54.4312 92.6852C53.3333 94.2141 52.8888 96.1157 53.1957 97.9717C53.5026 99.8277 54.5356 101.486 56.0676 102.582C57.5995 103.678 59.5049 104.121 61.3646 103.815V103.815Z" fill="#18AD6F"/>
<path d="M36.9008 49.5605C36.9008 53.475 29.8052 64.8376 29.8052 64.8376C29.8052 64.8376 22.6953 53.4821 22.6917 49.5677C22.6705 48.6232 22.8386 47.6839 23.1861 46.8052C23.5336 45.9264 24.0536 45.1258 24.7154 44.4503C25.3772 43.7748 26.1676 43.2381 27.0401 42.8717C27.9126 42.5053 28.8496 42.3165 29.7963 42.3165C30.7429 42.3165 31.6799 42.5053 32.5524 42.8717C33.425 43.2381 34.2153 43.7748 34.8771 44.4503C35.539 45.1258 36.0589 45.9264 36.4064 46.8052C36.7539 47.6839 36.922 48.6232 36.9008 49.5677V49.5605Z" fill="#18AD6F"/>
<path d="M65.6683 67.0937C64.4952 70.8302 54.3153 79.5488 54.3153 79.5488C54.3153 79.5488 50.935 66.5777 52.0939 62.8234C52.7167 61.1045 53.9805 59.6919 55.6216 58.8803C57.2626 58.0688 59.1543 57.9209 60.902 58.4676C62.6497 59.0142 64.1184 60.2132 65.0018 61.8145C65.8851 63.4157 66.115 65.2955 65.6433 67.0617L65.6683 67.0937Z" fill="#18AD6F"/>
<path d="M91.2838 87.9293C90.7632 91.8118 82.2057 102.121 82.2057 102.121C82.2057 102.121 76.679 89.9221 77.2138 86.0397C77.4907 84.1982 78.4822 82.5392 79.9742 81.421C81.4662 80.3029 83.339 79.8152 85.1882 80.0633C87.0374 80.3114 88.7147 81.2753 89.8578 82.7471C91.001 84.2188 91.5183 86.0802 91.2981 87.9293H91.2838Z" fill="#18AD6F"/>
<path opacity="0.25" d="M2.1536 40.1801C4.97046 42.8953 18.0849 45.7422 18.0849 45.7422C18.0849 45.7422 14.8758 32.7462 12.0518 30.0167C10.6943 28.7338 8.885 28.0365 7.01589 28.0758C5.14679 28.1151 3.3685 28.8879 2.06639 30.2268C0.764288 31.5656 0.0432727 33.3627 0.0595975 35.2284C0.0759222 37.0942 0.828272 38.8784 2.1536 40.1943V40.1801Z" fill="black"/>
<path opacity="0.25" d="M9.57376 63.6988C13.4211 64.4604 25.9757 59.7168 25.9757 59.7168C25.9757 59.7168 16.188 50.5498 12.3371 49.7883C10.5069 49.4667 8.62331 49.8733 7.08996 50.9211C5.5566 51.969 4.49552 53.5746 4.13412 55.3938C3.77271 57.2131 4.13975 59.1013 5.15656 60.6537C6.17337 62.2061 7.75905 63.2993 9.57376 63.6988V63.6988Z" fill="black"/>
<path opacity="0.25" d="M36.5834 89.157C40.2917 87.8759 48.7066 77.4599 48.7066 77.4599C48.7066 77.4599 35.6278 74.4743 31.9231 75.7554C31.0141 76.0372 30.1711 76.4984 29.4441 77.1117C28.7171 77.7249 28.121 78.4776 27.6911 79.3252C27.2612 80.1728 27.0063 81.0979 26.9415 82.0457C26.8767 82.9935 27.0034 83.9446 27.314 84.8426C27.6246 85.7405 28.1128 86.5671 28.7496 87.2732C29.3864 87.9793 30.1588 88.5504 31.0211 88.9529C31.8833 89.3553 32.8178 89.5807 33.769 89.6158C34.7202 89.6509 35.6688 89.4949 36.5584 89.157H36.5834Z" fill="black"/>
<path opacity="0.25" d="M61.3646 103.815C65.2368 103.174 75.3062 94.3313 75.3062 94.3313C75.3062 94.3313 62.9227 89.182 59.0505 89.8189C57.1908 90.1252 55.5292 91.1562 54.4312 92.6852C53.3333 94.2141 52.8888 96.1157 53.1957 97.9717C53.5026 99.8277 54.5356 101.486 56.0676 102.582C57.5995 103.678 59.5049 104.121 61.3646 103.815V103.815Z" fill="black"/>
<path opacity="0.25" d="M36.9008 49.5605C36.9008 53.475 29.8052 64.8376 29.8052 64.8376C29.8052 64.8376 22.6953 53.4821 22.6917 49.5677C22.6705 48.6232 22.8386 47.6839 23.1861 46.8052C23.5336 45.9264 24.0536 45.1258 24.7154 44.4503C25.3772 43.7748 26.1676 43.2381 27.0401 42.8717C27.9126 42.5053 28.8496 42.3165 29.7963 42.3165C30.7429 42.3165 31.6799 42.5053 32.5524 42.8717C33.425 43.2381 34.2153 43.7748 34.8771 44.4503C35.539 45.1258 36.0589 45.9264 36.4064 46.8052C36.7539 47.6839 36.922 48.6232 36.9008 49.5677V49.5605Z" fill="black"/>
<path opacity="0.25" d="M65.6683 67.0937C64.4952 70.8302 54.3153 79.5488 54.3153 79.5488C54.3153 79.5488 50.935 66.5777 52.0939 62.8234C52.7167 61.1045 53.9805 59.6919 55.6216 58.8803C57.2626 58.0688 59.1543 57.9209 60.902 58.4676C62.6497 59.0142 64.1184 60.2132 65.0018 61.8145C65.8851 63.4157 66.115 65.2955 65.6433 67.0617L65.6683 67.0937Z" fill="black"/>
<path opacity="0.25" d="M91.2838 87.9293C90.7632 91.8118 82.2057 102.121 82.2057 102.121C82.2057 102.121 76.679 89.9221 77.2138 86.0397C77.4907 84.1982 78.4822 82.5392 79.9742 81.421C81.4662 80.3029 83.339 79.8152 85.1882 80.0633C87.0374 80.3114 88.7147 81.2753 89.8578 82.7471C91.001 84.2188 91.5183 86.0802 91.2981 87.9293H91.2838Z" fill="black"/>
<path d="M91.045 115.028C91.045 115.028 87.8359 81.869 68.6243 64.2326C60.5695 56.8308 54.9714 47.1514 52.9711 36.3902C52.0322 31.2897 51.5643 26.114 51.5734 20.9281" stroke="#535461" stroke-width="2" stroke-miterlimit="10"/>
<path d="M39.5393 9.74344C41.0083 13.3768 51.8514 21.259 51.8514 21.259C51.8514 21.259 54.1869 8.07445 52.7214 4.44113C52.0169 2.6951 50.6463 1.29991 48.911 0.562468C47.1758 -0.174971 45.2181 -0.194246 43.4686 0.508884C41.7191 1.21201 40.3212 2.57995 39.5823 4.31176C38.8434 6.04358 38.8241 7.99741 39.5286 9.74344H39.5393Z" fill="#18AD6F"/>
<path d="M36.7617 34.2443C39.9708 36.4969 53.3669 37.2336 53.3669 37.2336C53.3669 37.2336 48.1718 24.8995 44.9627 22.6469C43.4217 21.5615 41.5119 21.1315 39.6532 21.4515C37.7946 21.7715 36.1395 22.8153 35.052 24.3532C33.9645 25.8912 33.5336 27.7972 33.8543 29.6522C34.1749 31.5071 35.2207 33.159 36.7617 34.2443V34.2443Z" fill="#18AD6F"/>
<path d="M51.1348 68.4353C55.057 68.7663 66.9805 62.649 66.9805 62.649C66.9805 62.649 56.2372 54.6315 52.3257 54.3041C51.3846 54.2041 50.4329 54.2928 49.5265 54.5648C48.6202 54.8369 47.7774 55.2869 47.0477 55.8885C46.318 56.4901 45.716 57.2311 45.2772 58.068C44.8383 58.9049 44.5714 59.8209 44.492 60.7621C44.4127 61.7034 44.5226 62.651 44.8152 63.5493C45.1078 64.4476 45.5773 65.2786 46.1961 65.9933C46.8149 66.7081 47.5705 67.2923 48.4186 67.7116C49.2667 68.131 50.1901 68.377 51.1348 68.4353Z" fill="#18AD6F"/>
<path d="M67.8362 91.8651C71.6372 92.8473 84.4343 88.8332 84.4343 88.8332C84.4343 88.8332 75.2028 79.1182 71.4054 78.1361C69.5928 77.6978 67.6801 77.9883 66.0801 78.9449C64.4802 79.9015 63.3212 81.4475 62.8532 83.2494C62.3852 85.0513 62.6458 86.9646 63.5787 88.5764C64.5116 90.1882 66.042 91.3694 67.8398 91.8651H67.8362Z" fill="#18AD6F"/>
<path d="M67.4974 32.3725C65.9107 35.9525 54.8073 43.4647 54.8073 43.4647C54.8073 43.4647 52.9175 30.2125 54.5043 26.629C54.8717 25.762 55.4085 24.9767 56.0832 24.3188C56.7579 23.661 57.5571 23.1438 58.4341 22.7974C59.3112 22.451 60.2486 22.2823 61.1916 22.3012C62.1347 22.3201 63.0645 22.5262 63.927 22.9074C64.7894 23.2886 65.5671 23.8374 66.2149 24.5217C66.8626 25.206 67.3674 26.0122 67.6997 26.8932C68.032 27.7742 68.1853 28.7124 68.1506 29.6532C68.1159 30.5939 67.8938 31.5183 67.4974 32.3725V32.3725Z" fill="#18AD6F"/>
<path d="M86.6806 60.0157C84.092 62.9587 71.245 66.8126 71.245 66.8126C71.245 66.8126 73.4129 53.6031 76.0051 50.6601C76.6206 49.9606 77.3682 49.3888 78.2051 48.9776C79.042 48.5663 79.9519 48.3236 80.8827 48.2633C81.8136 48.203 82.7473 48.3263 83.6305 48.6261C84.5136 48.9259 85.3289 49.3964 86.0299 50.0107C86.7309 50.625 87.3037 51.3711 87.7158 52.2063C88.1279 53.0416 88.3711 53.9496 88.4315 54.8787C88.4919 55.8077 88.3684 56.7396 88.068 57.621C87.7676 58.5024 87.2961 59.3161 86.6806 60.0157V60.0157Z" fill="#18AD6F"/>
<path d="M101.656 89.4417C99.6025 92.7797 87.5934 98.7439 87.5934 98.7439C87.5934 98.7439 87.4936 85.3565 89.5474 82.0185C90.5337 80.414 92.1183 79.2663 93.9525 78.8279C95.7867 78.3894 97.7203 78.6961 99.3279 79.6805C100.936 80.6649 102.086 82.2463 102.525 84.0769C102.964 85.9075 102.657 87.8373 101.671 89.4417H101.656Z" fill="#18AD6F"/>
<path opacity="0.1" d="M145.535 303.085C167.498 303.085 185.303 300.772 185.303 297.918C185.303 295.065 167.498 292.751 145.535 292.751C123.572 292.751 105.768 295.065 105.768 297.918C105.768 300.772 123.572 303.085 145.535 303.085Z" fill="#18AD6F"/>
<path opacity="0.1" d="M65.2083 299.584C71.8801 299.584 77.2887 298.66 77.2887 297.52C77.2887 296.38 71.8801 295.456 65.2083 295.456C58.5365 295.456 53.1279 296.38 53.1279 297.52C53.1279 298.66 58.5365 299.584 65.2083 299.584Z" fill="#18AD6F"/>
<path d="M67.8327 274.538C67.8327 274.538 69.7902 277.097 66.927 280.944C64.0638 284.791 61.7034 288.061 62.6483 290.47C62.6483 290.47 66.9663 283.3 70.4927 283.2C74.0191 283.1 71.705 278.851 67.8327 274.538Z" fill="#18AD6F"/>
<path opacity="0.1" d="M67.8327 274.538C68.0037 274.786 68.1382 275.057 68.232 275.343C71.6622 279.364 73.4914 283.118 70.1931 283.211C67.1231 283.3 63.4363 288.78 62.5555 290.164C62.5846 290.271 62.6191 290.377 62.6589 290.481C62.6589 290.481 66.9769 283.31 70.5034 283.211C74.0298 283.111 71.705 278.851 67.8327 274.538Z" fill="black"/>
<path d="M71.4731 277.798C71.4731 278.698 71.3733 279.428 71.2485 279.428C71.1237 279.428 71.0203 278.716 71.0203 277.798C71.0203 276.88 71.1486 277.321 71.2734 277.321C71.3982 277.321 71.4731 276.898 71.4731 277.798Z" fill="#FFD037"/>
<path d="M72.7247 278.873C71.9331 279.303 71.2414 279.563 71.1808 279.453C71.1201 279.343 71.7156 278.905 72.5072 278.474C73.2987 278.044 72.985 278.357 73.0456 278.474C73.1062 278.592 73.5163 278.442 72.7247 278.873Z" fill="#FFD037"/>
<path d="M57.4852 274.538C57.4852 274.538 55.5276 277.097 58.3908 280.944C61.254 284.791 63.6145 288.061 62.6696 290.47C62.6696 290.47 58.3516 283.3 54.8252 283.2C51.2988 283.1 53.62 278.851 57.4852 274.538Z" fill="#18AD6F"/>
<path opacity="0.1" d="M57.4851 274.538C57.3141 274.786 57.1796 275.057 57.0857 275.343C53.6556 279.364 51.8264 283.118 55.1246 283.211C58.1982 283.3 61.8815 288.78 62.7622 290.164C62.7348 290.272 62.7002 290.378 62.6588 290.481C62.6588 290.481 58.3409 283.31 54.8144 283.211C51.288 283.111 53.6199 278.851 57.4851 274.538Z" fill="black"/>
<path d="M53.8446 277.798C53.8446 278.698 53.9444 279.428 54.0692 279.428C54.194 279.428 54.2974 278.716 54.2974 277.798C54.2974 276.88 54.1691 277.321 54.0443 277.321C53.9195 277.321 53.8446 276.898 53.8446 277.798Z" fill="#FFD037"/>
<path d="M52.5967 278.873C53.3882 279.303 54.0764 279.563 54.137 279.453C54.1976 279.343 53.6022 278.905 52.8106 278.474C52.019 278.044 52.3328 278.357 52.2722 278.474C52.2116 278.592 51.8051 278.442 52.5967 278.873Z" fill="#FFD037"/>
<path d="M54.4686 290.146C54.4686 290.146 59.9454 289.976 61.5999 288.805C63.2544 287.634 70.0219 286.228 70.432 288.111C70.842 289.993 78.6615 297.466 72.4787 297.516C66.2958 297.566 58.1127 296.555 56.4654 295.555C54.8181 294.556 54.4686 290.146 54.4686 290.146Z" fill="#A8A8A8"/>
<path opacity="0.2" d="M72.5856 296.861C66.4028 296.911 58.2197 295.901 56.5724 294.901C55.3172 294.136 54.8181 291.399 54.6505 290.139H54.4686C54.4686 290.139 54.8252 294.545 56.4618 295.548C58.0984 296.552 66.2923 297.559 72.4751 297.509C74.2579 297.509 74.8783 296.861 74.8427 295.922C74.5967 296.498 73.9156 296.851 72.5856 296.861Z" fill="black"/>
<path d="M237.364 289.936C237.364 289.936 222.289 289.029 224.068 299.573C224.068 299.573 223.712 301.434 225.405 302.281C225.405 302.281 225.434 301.502 226.953 301.765C227.493 301.856 228.043 301.882 228.589 301.843C229.33 301.795 230.034 301.505 230.593 301.018V301.018C230.593 301.018 234.829 299.274 236.477 292.36C236.477 292.36 237.696 290.851 237.65 290.463L235.104 291.531C235.104 291.531 235.974 293.363 235.289 294.886C235.289 294.886 235.207 291.598 234.719 291.684C234.619 291.684 233.396 292.317 233.396 292.317C233.396 292.317 234.893 295.52 233.752 297.826C233.752 297.826 234.18 293.911 232.918 292.548L231.135 293.591C231.135 293.591 232.882 296.886 231.699 299.577C231.699 299.577 232.002 295.452 230.761 293.844L229.139 295.107C229.139 295.107 230.779 298.356 229.777 300.587C229.777 300.587 229.648 295.787 228.786 295.424C228.786 295.424 227.359 296.673 227.149 297.203C227.149 297.203 228.272 299.559 227.577 300.804C227.577 300.804 227.149 297.602 226.796 297.602C226.796 297.602 225.37 299.737 225.234 301.16C225.234 301.16 225.298 299 226.454 297.385C225.638 297.54 224.886 297.929 224.289 298.506C224.289 298.506 224.51 297.007 226.785 296.876C226.785 296.876 227.955 295.267 228.269 295.171C228.269 295.171 225.987 294.979 224.603 295.591C224.603 295.591 225.819 294.168 228.686 294.819L230.287 293.516C230.287 293.516 227.284 293.104 226.008 293.559C226.008 293.559 227.477 292.306 230.718 293.203L232.465 292.164C232.465 292.164 229.902 291.613 228.375 291.808C228.375 291.808 229.987 290.94 232.975 291.879L234.223 291.321C234.223 291.321 232.344 290.965 231.795 290.897C231.246 290.83 231.217 290.687 231.217 290.687C232.406 290.489 233.627 290.625 234.744 291.079C234.744 291.079 237.411 290.104 237.364 289.936Z" fill="#18AD6F"/>
<path opacity="0.1" d="M226.981 305C232.873 305 237.65 304.194 237.65 303.199C237.65 302.205 232.873 301.399 226.981 301.399C221.089 301.399 216.313 302.205 216.313 303.199C216.313 304.194 221.089 305 226.981 305Z" fill="#18AD6F"/>
<path d="M210.954 290.499C210.954 290.499 202.453 289.986 203.466 295.933C203.415 296.234 203.46 296.544 203.596 296.818C203.732 297.092 203.951 297.317 204.222 297.459C204.222 297.459 204.222 297.018 205.095 297.168C205.399 297.217 205.708 297.232 206.015 297.214C206.432 297.183 206.829 297.02 207.146 296.748V296.748C207.146 296.748 209.535 295.762 210.465 291.865C210.465 291.865 211.15 291.015 211.125 290.798L209.699 291.406C209.699 291.406 210.187 292.442 209.802 293.299C209.802 293.299 209.756 291.445 209.481 291.488C209.424 291.488 208.736 291.844 208.736 291.844C208.736 291.844 209.577 293.623 208.943 294.951C208.943 294.951 209.182 292.734 208.472 291.972L207.463 292.563C207.463 292.563 208.447 294.42 207.78 295.936C207.78 295.936 207.951 293.609 207.249 292.705L206.336 293.417C206.336 293.417 207.26 295.249 206.693 296.506C206.693 296.506 206.618 293.798 206.133 293.595C205.786 293.887 205.476 294.22 205.209 294.588C205.209 294.588 205.844 295.918 205.452 296.619C205.452 296.619 205.209 294.815 205.013 294.808C205.013 294.808 204.215 296.004 204.133 296.822C204.169 296.063 204.405 295.326 204.817 294.687C204.358 294.774 203.934 294.993 203.598 295.317C203.598 295.317 203.723 294.47 205.024 294.399C205.024 294.399 205.68 293.491 205.858 293.438C205.858 293.438 204.571 293.328 203.79 293.673C203.79 293.673 204.479 292.876 206.094 293.239L206.996 292.502C206.996 292.502 205.302 292.271 204.585 292.527C204.585 292.527 205.413 291.815 207.242 292.335L208.222 291.751C207.467 291.584 206.692 291.517 205.919 291.552C205.919 291.552 206.828 291.065 208.511 291.591L209.224 291.278C209.224 291.278 208.155 291.068 207.859 291.036C207.563 291.004 207.531 290.919 207.531 290.919C208.202 290.807 208.89 290.884 209.52 291.139C209.52 291.139 210.979 290.595 210.954 290.499Z" fill="#18AD6F"/>
<path opacity="0.1" d="M205.099 298.993C208.421 298.993 211.114 298.539 211.114 297.979C211.114 297.419 208.421 296.965 205.099 296.965C201.777 296.965 199.084 297.419 199.084 297.979C199.084 298.539 201.777 298.993 205.099 298.993Z" fill="#18AD6F"/>
<path d="M227.131 277.898C227.131 277.898 216.873 277.279 218.081 284.456C218.019 284.82 218.074 285.195 218.238 285.526C218.402 285.857 218.667 286.128 218.994 286.3C218.994 286.3 218.994 285.769 220.046 285.944C220.414 286.002 220.787 286.02 221.159 285.997C221.663 285.961 222.141 285.764 222.524 285.435V285.435C222.524 285.435 225.409 284.246 226.528 279.538C226.528 279.538 227.359 278.513 227.327 278.25L225.594 278.987C225.594 278.987 226.186 280.236 225.723 281.271C225.723 281.271 225.666 279.033 225.33 279.086C225.266 279.086 224.432 279.517 224.432 279.517C224.432 279.517 225.452 281.691 224.681 283.268C224.681 283.268 224.974 280.592 224.114 279.673L222.895 280.385C222.895 280.385 224.086 282.627 223.28 284.46C223.28 284.46 223.487 281.652 222.638 280.545L221.533 281.403C221.533 281.403 222.653 283.613 221.972 285.132C221.972 285.132 221.882 281.866 221.294 281.616C221.294 281.616 220.328 282.467 220.182 282.816C220.182 282.816 220.948 284.421 220.47 285.268C220.47 285.268 220.182 283.093 219.943 283.083C219.943 283.083 218.98 284.506 218.873 285.513C218.919 284.599 219.204 283.713 219.7 282.944C219.146 283.049 218.634 283.314 218.228 283.705C218.228 283.705 218.377 282.684 219.939 282.595C219.939 282.595 220.734 281.503 220.948 281.435C220.948 281.435 219.394 281.307 218.452 281.723C218.452 281.723 219.279 280.759 221.233 281.197L222.325 280.31C222.325 280.31 220.278 280.029 219.411 280.339C219.411 280.339 220.41 279.488 222.62 280.108L223.808 279.396C223.808 279.396 222.064 279.04 221.027 279.157C221.027 279.157 222.121 278.567 224.157 279.204L225.006 278.827C225.006 278.827 223.726 278.574 223.351 278.535C222.977 278.496 222.959 278.392 222.959 278.392C223.768 278.258 224.599 278.35 225.359 278.659C225.359 278.659 227.167 278.012 227.131 277.898Z" fill="#18AD6F"/>
<path opacity="0.1" d="M220.068 288.15C224.079 288.15 227.331 287.602 227.331 286.926C227.331 286.25 224.079 285.702 220.068 285.702C216.056 285.702 212.804 286.25 212.804 286.926C212.804 287.602 216.056 288.15 220.068 288.15Z" fill="#18AD6F"/>
<path d="M387.977 208.06V33.9988H48.7601V198.075C53.0924 201.683 58.3018 204.719 63.7358 207.213C66.4124 208.445 69.1461 209.57 71.9368 210.59H383.93L387.977 208.06Z" fill="url(#paint0_linear)"/>
<path d="M387.321 208.132V38.9808H49.5018V198.441C53.8163 201.95 59.0043 204.9 64.4062 207.338C67.0733 208.524 69.7974 209.618 72.5786 210.619H383.281L387.321 208.132Z" fill="white"/>
<path d="M387.321 34.4935H49.5054V43.4398H387.321V34.4935Z" fill="#5A5773"/>
<path d="M56.2515 41.2797C57.5315 41.2797 58.5692 40.2441 58.5692 38.9666C58.5692 37.6891 57.5315 36.6535 56.2515 36.6535C54.9715 36.6535 53.9338 37.6891 53.9338 38.9666C53.9338 40.2441 54.9715 41.2797 56.2515 41.2797Z" fill="white"/>
<path d="M62.4914 41.2797C63.7714 41.2797 64.809 40.2441 64.809 38.9666C64.809 37.6891 63.7714 36.6535 62.4914 36.6535C61.2114 36.6535 60.1737 37.6891 60.1737 38.9666C60.1737 40.2441 61.2114 41.2797 62.4914 41.2797Z" fill="white"/>
<path d="M68.7312 41.2797C70.0113 41.2797 71.0489 40.2441 71.0489 38.9666C71.0489 37.6891 70.0113 36.6535 68.7312 36.6535C67.4512 36.6535 66.4136 37.6891 66.4136 38.9666C66.4136 40.2441 67.4512 41.2797 68.7312 41.2797Z" fill="white"/>
<path d="M191.635 63.101H135.833V98.0962H191.635V63.101Z" fill="#18AD6F"/>
<path opacity="0.2" d="M114.371 63.101H58.5691V98.0962H114.371V63.101Z" fill="#5A5773"/>
<path opacity="0.2" d="M268.899 63.101H213.097V98.0962H268.899V63.101Z" fill="#5A5773"/>
<path opacity="0.2" d="M114.371 113.131H58.5691V148.126H114.371V113.131Z" fill="#5A5773"/>
<path opacity="0.2" d="M191.635 113.131H135.833V148.126H191.635V113.131Z" fill="#5A5773"/>
<path opacity="0.2" d="M268.899 113.131H213.097V148.126H268.899V113.131Z" fill="#5A5773"/>
<path opacity="0.2" d="M114.371 163.158H58.5691V198.153H114.371V163.158Z" fill="#5A5773"/>
<path opacity="0.2" d="M191.635 163.158H135.833V198.153H191.635V163.158Z" fill="#5A5773"/>
<path opacity="0.2" d="M268.899 163.158H213.097V198.153H268.899V163.158Z" fill="#5A5773"/>
<path d="M177.961 93.7547L174.11 95.1141L172.712 92.801C171.643 91.0217 170.159 88.5876 169.065 86.819C167.132 83.7088 169.66 78.9688 169.66 78.9688C169.66 78.9688 170.117 74.2109 171.743 72.7448C173.369 71.2786 173.821 78.9688 173.821 78.9688C180.35 81.9295 176.852 88.8937 176.852 88.8937L177.487 91.6551L177.961 93.7547Z" fill="#EFB7B9"/>
<path opacity="0.1" d="M177.961 93.7547L174.11 95.1141L172.712 92.801V92.5982C172.712 92.5982 174.919 91.0858 177.494 91.6552L177.961 93.7547Z" fill="black"/>
<path d="M171.742 109.341L173.671 107.712L172.705 93.043C172.705 93.043 177.697 89.6339 181.391 94.9682C181.391 94.9682 181.241 98.2279 181.391 99.1175C181.541 100.007 180.353 100.897 181.391 101.783C182.429 102.669 181.391 105.637 181.391 105.637C181.391 105.637 182.564 107.712 183.306 108.302C184.047 108.893 184.793 113.786 183.306 114.822C181.819 115.857 179.031 118.231 179.031 119.266C179.031 120.302 175.465 122.825 175.465 122.825L172.334 118.693L171.742 109.341Z" fill="#FF6484"/>
<path d="M130.025 198.385C122.829 195.338 124.427 187.897 125.782 184.15C126.052 183.391 126.37 182.649 126.734 181.93L130.77 179.485C130.77 179.485 131.593 181.581 132.474 184.392C134.517 190.933 136.867 201.285 130.025 198.385Z" fill="#EFB7B9"/>
<path d="M139.916 266.279C139.429 267.226 139.069 268.234 138.846 269.275C138.49 270.951 138.334 272.663 138.382 274.375C138.411 275.56 138.511 276.336 138.511 276.336L130.495 281.837C130.495 281.837 130.542 281.193 130.62 280.246C130.827 277.727 131.258 273.051 131.665 272.446C131.946 272.026 132.143 270.339 132.267 268.774C132.392 267.208 132.442 265.834 132.442 265.834C132.442 265.834 142.087 262.226 139.916 266.279Z" fill="#EFB7B9"/>
<path d="M158.846 270.225C158.846 270.225 158.846 271.756 158.789 273.535C158.731 275.314 158.624 277.414 158.4 278.392C158.193 279.289 158.179 280.937 158.218 282.456C158.271 284.236 158.4 285.837 158.4 285.837C158.4 285.837 150.217 278.115 151.051 277.503C151.276 277.339 151.497 276.681 151.7 275.805C151.95 274.738 152.174 273.314 152.342 272.104C152.541 270.663 152.666 269.503 152.666 269.503L158.846 270.225Z" fill="#EFB7B9"/>
<path opacity="0.1" d="M139.916 266.279C139.428 267.226 139.069 268.234 138.846 269.275C136.652 269.218 134.462 269.05 132.285 268.773C132.406 267.243 132.46 265.834 132.46 265.834C132.46 265.834 142.087 262.226 139.916 266.279Z" fill="black"/>
<path opacity="0.1" d="M158.846 270.225C158.846 270.225 158.846 271.756 158.788 273.535C156.235 274.186 153.611 272.884 152.342 272.111C152.541 270.67 152.666 269.51 152.666 269.51L158.846 270.225Z" fill="black"/>
<path d="M175.6 194.534C172.334 201.651 170.997 210.092 170.997 210.092L169.81 217.209C169.81 217.209 170.405 220.32 169.81 221.505C169.214 222.69 168.027 224.618 168.027 224.618C168.027 224.618 168.918 231.878 168.027 232.618C167.136 233.358 168.027 237.803 168.027 237.803L165.057 252.749L160.899 272.008C156.892 275.271 151.557 271.122 151.557 271.122L152.734 258.528C152.734 258.528 154.517 236.465 153.775 235.561C153.034 234.657 154.071 231.857 154.071 231.857C154.071 231.857 155.112 229.188 154.371 228.152C153.629 227.117 154.517 224.892 154.517 224.892C154.517 224.892 154.221 215.854 155.112 213.779C156.004 211.704 155.112 198.872 155.112 198.872L154.756 194.876L154.549 192.662L154.531 192.445C154.531 192.445 154.396 193.331 154.175 194.705C153.519 198.886 152.121 207.551 151.568 209.334C151.192 210.619 150.682 211.861 150.046 213.039C150.046 213.039 150.816 217.483 150.046 218.668C149.275 219.853 149.928 221.188 149.928 221.188C149.928 221.188 150.67 224.892 148.441 226.373C146.213 227.853 148.441 228.597 148.441 228.597C148.441 228.597 146.808 232.156 146.216 233.632C145.624 235.109 146.216 237.191 146.216 237.191L145.029 249.191C145.029 249.191 143.988 254.226 144.137 257.635C144.287 261.044 142.8 268.894 142.8 268.894C142.8 268.894 131.369 268.894 129.607 267.56C127.846 266.226 132.549 253.208 132.549 253.208C132.549 253.208 133.886 230.39 133.587 229.8C133.287 229.209 133.587 224.761 134.628 223.875C135.669 222.989 134.628 221.206 134.628 221.206C134.628 221.206 134.332 217.647 134.628 216.761C134.924 215.875 134.581 212.907 134.581 212.907C134.581 212.907 133.587 205.648 133.44 201.498C133.294 197.349 132.549 188.018 132.549 188.018C132.549 188.018 133.326 182.246 133.444 179.499C133.487 178.488 133.94 177.225 134.514 176.037C135.156 174.695 135.895 173.401 136.724 172.165C136.724 172.165 171.899 161.788 173.376 162.82C173.768 163.094 174.338 164.955 174.902 167.649C176.471 175.175 178.004 189.303 175.6 194.534Z" fill="#444053"/>
<path d="M153.929 103.979C159.586 103.979 164.173 99.4012 164.173 93.7547C164.173 88.1083 159.586 83.5309 153.929 83.5309C148.271 83.5309 143.684 88.1083 143.684 93.7547C143.684 99.4012 148.271 103.979 153.929 103.979Z" fill="#A1616A"/>
<path opacity="0.1" d="M174.902 167.656C173.721 168.261 172.93 168.677 172.93 168.677C172.93 168.677 156.303 176.531 151.575 176.086C147.917 175.73 138.579 175.933 134.51 176.033C135.153 174.691 135.891 173.397 136.721 172.161C136.721 172.161 171.899 161.788 173.376 162.82C173.768 163.101 174.338 164.955 174.902 167.656Z" fill="black"/>
<path d="M146.801 110.082C146.801 110.082 137.313 111.576 135.074 113.042C132.834 114.508 128.399 117.341 128.399 123.416C128.399 129.49 127.361 135.714 126.766 137.49C126.17 139.266 136.118 153.639 136.118 153.639L132.553 175.421C132.553 175.421 146.815 174.976 151.565 175.421C156.314 175.866 172.933 168.012 172.933 168.012C172.933 168.012 182.732 162.827 184.811 162.674C186.889 162.521 180.653 151.265 180.653 151.265C180.653 151.265 171.001 133.045 172.634 130.081C174.267 127.117 175.465 122.821 175.465 122.821L173.682 107.712C173.682 107.712 171.012 106.822 168.783 108.452C166.555 110.082 158.985 109.192 158.985 109.192L146.801 110.082Z" fill="#FF6484"/>
<path opacity="0.1" d="M130.695 136.454L126.972 137.49L125.942 151.432C125.942 151.432 127.279 155.137 125.942 156.322C124.605 157.507 124.309 182.844 124.309 182.844C124.309 182.844 128.616 185.954 133.662 183.584C133.662 183.584 132.92 180.769 135.148 170.546C137.377 160.322 137.373 155.137 137.373 155.137C137.373 155.137 137.373 142.394 138.415 140.319C139.456 138.244 138.415 133.059 138.415 133.059C138.415 133.059 136.336 130.245 136.482 129.209C136.628 128.173 130.695 136.454 130.695 136.454Z" fill="black"/>
<path opacity="0.1" d="M132.474 184.403C130.288 185.137 127.909 185.051 125.781 184.161C126.052 183.402 126.37 182.66 126.734 181.94L130.77 179.495C130.77 179.495 131.608 181.592 132.474 184.403Z" fill="black"/>
<path d="M130.47 136.454L126.758 137.49L125.721 151.432C125.721 151.432 127.058 155.137 125.721 156.322C124.384 157.507 124.088 182.844 124.088 182.844C124.088 182.844 128.399 185.951 133.44 183.57C133.44 183.57 132.699 180.755 134.924 170.531C137.149 160.308 137.152 155.123 137.152 155.123C137.152 155.123 137.152 142.379 138.19 140.305C139.227 138.23 138.19 133.045 138.19 133.045C138.19 133.045 136.111 130.23 136.261 129.195C136.411 128.159 130.47 136.454 130.47 136.454Z" fill="#FF6484"/>
<path opacity="0.1" d="M168.476 138.675C168.476 138.675 166.547 155.269 160.903 158.382C160.903 158.382 173.522 154.827 168.476 138.675Z" fill="black"/>
<path opacity="0.1" d="M140.122 140.159C140.122 140.159 147.097 143.564 145.471 145.934C143.845 148.304 140.122 140.159 140.122 140.159Z" fill="black"/>
<path opacity="0.1" d="M140.122 146.974C140.122 146.974 144.576 151.568 143.688 153.197C142.8 154.827 140.122 146.974 140.122 146.974Z" fill="black"/>
<path opacity="0.1" d="M176.046 108.897C176.046 108.897 177.793 111.857 177.961 113.786C178.129 115.715 176.046 108.897 176.046 108.897Z" fill="black"/>
<path opacity="0.1" d="M176.046 104.897C176.046 104.897 176.923 104.153 179.163 104.897C181.402 105.64 176.046 104.897 176.046 104.897Z" fill="black"/>
<path opacity="0.1" d="M167.474 191.495C163.796 192.016 160.045 191.536 156.617 190.107L154.745 194.89L154.538 192.677C154.845 190.819 155.44 188.83 156.617 188.328C156.617 188.328 160.739 191.605 167.474 191.495Z" fill="black"/>
<path opacity="0.1" d="M137.02 197.719C137.02 197.719 146.152 199.609 148.712 199.274L137.02 197.719Z" fill="black"/>
<path opacity="0.1" d="M137.969 200.107C137.969 200.107 141.866 199.94 143.813 200.719L137.969 200.107Z" fill="black"/>
<path opacity="0.1" d="M138.414 201.719C140.193 202.096 141.998 202.334 143.813 202.431L138.414 201.719Z" fill="black"/>
<path opacity="0.1" d="M138.19 222.11C138.358 221.999 145.984 220.22 146.933 221.498L138.19 222.11Z" fill="black"/>
<path opacity="0.1" d="M138.19 224.444C138.19 224.444 144.815 223.665 144.982 224.444C145.15 225.223 138.19 224.444 138.19 224.444Z" fill="black"/>
<path opacity="0.1" d="M138.19 226.554C138.19 226.554 145.261 225.095 146.095 225.451C146.929 225.807 138.19 226.554 138.19 226.554Z" fill="black"/>
<path opacity="0.1" d="M138.525 276.339L130.509 281.841C130.509 281.841 130.556 281.197 130.634 280.25C132.417 275.873 134.738 273.563 134.738 273.563C136.546 273.094 137.687 273.528 138.397 274.378C138.425 275.56 138.525 276.339 138.525 276.339Z" fill="black"/>
<path d="M139.306 281.282C138.173 283.861 137.603 286.651 137.634 289.467C137.679 291.776 137.092 294.053 135.936 296.054C135.769 296.336 135.581 296.604 135.373 296.858C135.373 296.858 129.804 296.812 127.853 295.2C127.634 295.027 127.455 294.808 127.329 294.559C126.213 292.339 129.5 283.837 129.5 283.837C131.226 277.282 134.731 273.78 134.731 273.78C140.975 272.168 139.306 281.282 139.306 281.282Z" fill="#444053"/>
<path opacity="0.1" d="M135.936 296.036C135.769 296.318 135.581 296.587 135.373 296.84C135.373 296.84 129.803 296.794 127.853 295.182C128.812 292.015 131.871 282.431 133.305 284.061C134.653 285.591 135.59 292.954 135.936 296.036Z" fill="black"/>
<path d="M135.173 284.656L134.785 299.011H136.653C136.653 299.011 136.956 286.417 137.791 284.656C138.625 282.894 135.173 284.656 135.173 284.656Z" fill="#444053"/>
<path opacity="0.1" d="M158.4 285.837C158.4 285.837 150.217 278.115 151.051 277.503C151.276 277.339 151.497 276.681 151.7 275.805C153.272 275.531 155.979 276.186 158.218 282.456C158.271 284.236 158.4 285.837 158.4 285.837Z" fill="black"/>
<path d="M159.623 294.449C159.56 294.476 159.494 294.495 159.427 294.506C158.464 294.673 154.916 294.577 152.93 294.506C152.566 294.494 152.221 294.341 151.968 294.08C151.715 293.819 151.573 293.471 151.572 293.107C151.572 292.573 151.572 291.922 151.529 291.228C151.436 289.036 151.172 286.428 150.384 285.841C148.99 284.773 147.888 281.15 150.384 276.563C150.384 276.563 155.17 272.916 158.621 283.88C158.621 283.88 158.956 287.008 160.457 288.118C161.958 289.228 160.293 294.132 159.623 294.449Z" fill="#444053"/>
<path opacity="0.1" d="M159.42 294.506C158.457 294.673 154.909 294.577 152.923 294.506C152.559 294.494 152.214 294.341 151.961 294.08C151.707 293.819 151.565 293.471 151.565 293.107C151.565 292.573 151.565 291.922 151.522 291.228C152.124 288.574 152.991 285.841 154.107 285.218C154.114 285.214 157.491 284.833 159.42 294.506Z" fill="black"/>
<path d="M150.99 284.894L151.889 296.84H153.03V283.876L150.99 284.894Z" fill="#444053"/>
<path opacity="0.1" d="M153.779 77.4635C150.544 77.7038 147.413 78.7076 144.644 80.3922C143.931 80.8228 143.217 81.3459 142.922 82.1181C142.665 82.7871 142.772 83.5416 142.782 84.2533C142.879 90.3812 136.033 95.018 136.247 101.142C136.332 103.573 137.555 105.836 137.78 108.26C138.154 112.302 135.758 116.021 133.462 119.369C135.828 119.513 138.158 118.742 139.969 117.217C142.392 125.277 142.705 133.822 140.878 142.038H144.162C144.487 142.014 144.813 142.054 145.122 142.155C145.41 142.292 145.668 142.484 145.881 142.721C148.951 145.771 151.008 150.279 149.835 154.443L156.824 151.827C158.496 151.201 160.193 150.564 161.648 149.532C163.103 148.5 164.322 147.002 164.629 145.244C164.818 144.176 164.758 142.902 165.638 142.283C166.072 142.053 166.535 141.882 167.015 141.774C168.933 141.098 169.781 138.885 170.174 136.892C170.651 134.447 170.801 131.95 170.619 129.465C170.309 125.302 169.075 121.074 170.092 117.01C170.666 114.729 171.942 112.605 172.046 110.249C172.213 106.366 169.172 103.021 168.719 99.1602C168.402 96.4699 169.375 93.7476 169.058 91.0573C168.881 89.6687 168.372 88.343 167.574 87.1927C166.775 86.0423 165.71 85.1011 164.469 84.449C163.609 84.0077 162.686 83.7124 161.837 83.2248C159.901 82.1039 158.664 80.0862 156.906 78.6983C155.148 77.3105 152.221 76.7873 150.898 78.5916L153.779 77.4635Z" fill="black"/>
<path d="M153.779 77.0186C150.544 77.2589 147.413 78.2627 144.644 79.9474C143.931 80.3779 143.218 80.9011 142.922 81.6733C142.665 82.3423 142.772 83.0967 142.782 83.8084C142.879 89.9363 136.033 94.5732 136.247 100.701C136.332 103.128 137.555 105.391 137.78 107.818C138.154 111.861 135.758 115.58 133.462 118.932C135.827 119.07 138.155 118.3 139.969 116.779C142.392 124.837 142.705 133.38 140.878 141.593H144.162C144.487 141.57 144.813 141.612 145.122 141.714C145.41 141.848 145.669 142.039 145.881 142.276C148.951 145.329 151.008 149.835 149.835 153.998L156.824 151.383C158.496 150.756 160.194 150.119 161.648 149.087C163.103 148.055 164.323 146.557 164.629 144.799C164.818 143.732 164.758 142.458 165.638 141.838C166.072 141.608 166.535 141.437 167.015 141.33C168.933 140.653 169.781 138.44 170.174 136.447C170.656 134 170.809 131.5 170.63 129.013C170.32 124.85 169.086 120.622 170.102 116.558C170.676 114.277 171.953 112.153 172.056 109.797C172.224 105.914 169.182 102.569 168.73 98.7083C168.412 96.018 169.386 93.2992 169.068 90.6054C168.892 89.217 168.382 87.8915 167.583 86.7412C166.785 85.5909 165.72 84.6496 164.479 83.997C163.62 83.5558 162.697 83.2604 161.848 82.7764C159.912 81.6519 158.675 79.6342 156.917 78.2464C155.159 76.8585 152.231 76.3354 150.909 78.1396L153.779 77.0186Z" fill="#925978"/>
<g opacity="0.1">
<path opacity="0.1" d="M142.775 82.3281C142.761 82.4652 142.754 82.603 142.754 82.7409C142.765 82.6056 142.772 82.4669 142.775 82.3281Z" fill="black"/>
<path opacity="0.1" d="M168.69 96.5731C168.819 94.6871 169.24 92.7939 169.083 90.915C168.965 92.801 168.544 94.6942 168.69 96.5731Z" fill="black"/>
<path opacity="0.1" d="M137.78 105.95C137.573 103.744 136.543 101.68 136.3 99.477C136.252 99.8807 136.234 100.288 136.247 100.694C136.332 103.096 137.527 105.342 137.769 107.733C137.828 107.14 137.832 106.543 137.78 105.95Z" fill="black"/>
<path opacity="0.1" d="M170.117 114.715C169.783 116.163 169.663 117.652 169.76 119.135C169.796 118.27 169.915 117.411 170.117 116.569C170.691 114.288 171.967 112.163 172.071 109.808C172.087 109.389 172.068 108.97 172.014 108.555C171.735 110.672 170.627 112.644 170.117 114.715Z" fill="black"/>
<path opacity="0.1" d="M139.969 114.907C138.482 116.151 136.641 116.898 134.706 117.042C134.3 117.676 133.879 118.295 133.462 118.907C135.827 119.045 138.155 118.275 139.969 116.754C141.272 121.08 141.97 125.564 142.044 130.081C142.15 124.946 141.45 119.826 139.969 114.907V114.907Z" fill="black"/>
<path opacity="0.1" d="M170.184 134.582C169.792 136.575 168.943 138.789 167.025 139.461C166.545 139.568 166.082 139.741 165.649 139.974C164.768 140.593 164.829 141.874 164.64 142.934C164.333 144.692 163.117 146.187 161.659 147.205C160.201 148.223 158.507 148.877 156.835 149.504L150.167 151.995C150.132 152.663 150.025 153.325 149.846 153.97L156.835 151.354C158.507 150.728 160.204 150.091 161.659 149.059C163.114 148.027 164.333 146.529 164.64 144.771C164.829 143.703 164.768 142.429 165.649 141.81C166.083 141.58 166.546 141.408 167.025 141.301C168.943 140.625 169.792 138.412 170.184 136.419C170.59 134.345 170.759 132.232 170.687 130.12C170.64 131.619 170.472 133.111 170.184 134.582V134.582Z" fill="black"/>
<path opacity="0.1" d="M145.892 140.401C145.68 140.163 145.421 139.97 145.132 139.835C144.823 139.734 144.498 139.693 144.173 139.714H141.26C141.146 140.333 141.025 140.952 140.903 141.568H144.187C144.512 141.546 144.838 141.587 145.147 141.689C145.435 141.823 145.694 142.014 145.906 142.251C148.152 144.486 149.853 147.497 150.146 150.585C150.506 146.892 148.587 143.091 145.892 140.401Z" fill="black"/>
</g>
<path opacity="0.1" d="M129.6 152.528C129.6 152.528 132.253 151.418 132.845 152.528C133.437 153.639 129.6 152.528 129.6 152.528Z" fill="black"/>
<path opacity="0.1" d="M130.538 154.432C130.538 154.432 133.191 153.322 133.786 154.432C134.382 155.543 130.538 154.432 130.538 154.432Z" fill="black"/>
<path opacity="0.1" d="M294.953 10.7541C294.953 10.7541 281.386 9.93916 282.987 19.4264C282.987 19.4264 282.669 21.1025 284.192 21.864C284.192 21.864 284.217 21.1523 285.583 21.3978C286.069 21.4795 286.563 21.5034 287.055 21.469C287.719 21.4231 288.35 21.1619 288.852 20.7253V20.7253C288.852 20.7253 292.664 19.1559 294.147 12.9355C294.147 12.9355 295.245 11.5761 295.217 11.2274L292.928 12.206C292.928 12.206 293.709 13.8536 293.092 15.2237C293.092 15.2237 293.021 12.2629 292.578 12.3341C292.489 12.3341 291.391 12.9035 291.391 12.9035C291.391 12.9035 292.735 15.7752 291.719 17.8641C291.719 17.8641 292.104 14.3269 290.97 13.1134L289.351 14.0707C289.351 14.0707 290.924 17.035 289.858 19.4548C289.858 19.4548 290.132 15.7432 289.013 14.2984L287.551 15.4336C287.551 15.4336 289.031 18.341 288.139 20.348C288.139 20.348 288.021 16.0243 287.244 15.7005C287.244 15.7005 285.968 16.825 285.775 17.2877C285.775 17.2877 286.784 19.4228 286.157 20.526C286.157 20.526 285.772 17.6506 285.444 17.6364C285.444 17.6364 284.171 19.5438 284.039 20.8391C284.101 19.6304 284.478 18.4589 285.133 17.4407C284.399 17.5794 283.722 17.9309 283.186 18.4513C283.186 18.4513 283.383 17.1026 285.447 16.9816C285.447 16.9816 286.499 15.5368 286.781 15.4479C286.781 15.4479 284.727 15.277 283.482 15.8286C283.482 15.8286 284.577 14.5546 287.159 15.1169L288.585 13.9426C288.585 13.9426 285.882 13.5867 284.734 13.9817C284.734 13.9817 286.053 12.8572 288.974 13.6757L290.542 12.7398C290.542 12.7398 288.239 12.2416 286.866 12.4231C286.866 12.4231 288.314 11.6437 291.002 12.4871L292.126 11.9853C292.126 11.9853 290.435 11.6544 289.943 11.601C289.451 11.5476 289.423 11.4124 289.423 11.4124C290.492 11.2348 291.59 11.358 292.593 11.7683C292.593 11.7683 294.992 10.9035 294.953 10.7541Z" fill="#18AD6F"/>
<path opacity="0.1" d="M275.617 3.06039C275.617 3.06039 264.207 10.4302 271.127 17.124C271.127 17.124 271.866 18.6613 273.545 18.3766C273.545 18.3766 273.146 17.793 274.39 17.1773C274.831 16.9557 275.244 16.6821 275.62 16.3624C276.128 15.9324 276.482 15.3491 276.629 14.7006V14.7006C276.629 14.7006 278.769 11.1775 276.273 5.29163C276.273 5.29163 276.351 3.54792 276.109 3.2917L274.846 5.42686C274.846 5.42686 276.455 6.2916 276.772 7.75774C276.772 7.75774 274.957 5.41974 274.632 5.73646C274.568 5.80051 274.012 6.90012 274.012 6.90012C274.012 6.90012 276.804 8.41608 277.221 10.6971C277.221 10.6971 275.438 7.61895 273.795 7.31647L273.053 9.0246C273.053 9.0246 276.084 10.4836 276.661 13.0636C276.661 13.0636 274.675 9.91069 272.917 9.40893L272.418 11.1882C272.418 11.1882 275.342 12.6686 275.809 14.818C275.809 14.818 273.149 11.4089 272.329 11.6153C272.329 11.6153 271.973 13.2736 272.087 13.7504C272.087 13.7504 274.162 14.8607 274.319 16.1347C274.319 16.1347 272.301 14.0458 272.04 14.2201C272.04 14.2201 272.147 16.5083 272.814 17.64C272.147 16.6296 271.757 15.4631 271.68 14.2557C271.171 14.8016 270.834 15.4846 270.71 16.2201C270.71 16.2201 270.068 15.0173 271.662 13.7006C271.662 13.7006 271.662 11.9213 271.823 11.6757C271.823 11.6757 270.068 12.7433 269.391 13.9319C269.391 13.9319 269.519 12.2594 271.94 11.1989L272.404 9.40181C272.404 9.40181 270.008 10.7043 269.327 11.7113C269.327 11.7113 269.723 10.0246 272.557 8.95698L273.27 7.27377C273.27 7.27377 271.131 8.23815 270.118 9.19541C270.118 9.19541 270.832 7.70792 273.491 6.80048L274.098 5.7329C274.098 5.7329 272.539 6.46597 272.112 6.71507C271.684 6.96417 271.58 6.87165 271.58 6.87165C272.336 6.09592 273.293 5.54516 274.344 5.28096C274.344 5.28096 275.738 3.16003 275.617 3.06039Z" fill="#18AD6F"/>
<path opacity="0.1" d="M258.252 11.6473C258.252 11.6473 251.431 23.3906 260.641 26.2126C260.641 26.2126 262 27.2482 263.365 26.2126C263.365 26.2126 262.748 25.8781 263.576 24.7643C263.863 24.3667 264.102 23.9367 264.289 23.4832C264.546 22.8695 264.598 22.189 264.435 21.5437V21.5437C264.435 21.5437 264.738 17.4371 259.835 13.3198C259.835 13.3198 259.122 11.7327 258.765 11.6152L258.612 14.1063C258.612 14.1063 260.438 14.149 261.39 15.3126C261.39 15.3126 258.708 14.0493 258.573 14.4728C258.544 14.5582 258.548 15.7895 258.548 15.7895C258.548 15.7895 261.753 15.8856 263.18 17.7289C263.18 17.7289 260.185 15.7966 258.591 16.2663L258.705 18.1239C258.705 18.1239 262.067 18.0527 263.754 20.0918C263.754 20.0918 260.545 18.1809 258.762 18.5296L259.118 20.3409C259.118 20.3409 262.399 20.3409 263.789 22.0419C263.789 22.0419 259.867 20.2057 259.229 20.7502C259.229 20.7502 259.66 22.3942 259.988 22.775C259.988 22.775 262.342 22.8248 263.062 23.8888C263.062 23.8888 260.313 22.9387 260.16 23.2163C260.16 23.2163 261.297 25.2055 262.406 25.9101C261.354 25.3148 260.475 24.4563 259.857 23.4191C259.651 24.1357 259.661 24.8966 259.885 25.6076C259.885 25.6076 258.765 24.8283 259.586 22.9316C259.586 22.9316 258.765 21.3444 258.812 21.0562C258.812 21.0562 257.742 22.8106 257.671 24.1664C257.671 24.1664 257.022 22.6184 258.698 20.5793L258.295 18.7645C258.295 18.7645 256.751 21.0099 256.601 22.2163C256.601 22.2163 256.188 20.5331 258.231 18.3018L258.095 16.4834C258.095 16.4834 256.619 18.3161 256.163 19.6221C256.163 19.6221 256.113 17.978 258.077 15.9603L258.131 14.7326C258.131 14.7326 257.061 16.0884 256.808 16.5119C256.555 16.9353 256.405 16.8749 256.405 16.8749C256.726 15.8406 257.329 14.9155 258.145 14.2023C258.145 14.2023 258.402 11.6793 258.252 11.6473Z" fill="#18AD6F"/>
<path d="M316.818 145.514C315.808 145.514 314.822 145.813 313.983 146.373C313.144 146.932 312.49 147.728 312.104 148.658C311.717 149.589 311.616 150.612 311.813 151.6C312.01 152.588 312.496 153.495 313.21 154.208C313.923 154.92 314.832 155.405 315.822 155.601C316.812 155.798 317.838 155.697 318.77 155.312C319.703 154.926 320.499 154.273 321.06 153.436C321.621 152.599 321.92 151.614 321.92 150.607C321.916 149.257 321.377 147.964 320.421 147.01C319.465 146.056 318.17 145.518 316.818 145.514V145.514ZM301.899 105.555V110.647H307.001L316.186 129.216L312.346 135.454C311.927 136.192 311.707 137.026 311.708 137.874C311.708 141.283 314.043 142.967 317.21 142.967H347.043V138.07H317.834C317.749 138.075 317.663 138.062 317.583 138.032C317.504 138.002 317.431 137.955 317.371 137.895C317.311 137.835 317.264 137.762 317.233 137.683C317.203 137.603 317.19 137.518 317.195 137.433C317.263 137.213 317.354 137 317.466 136.799L320.016 132.782H339.024C339.943 132.789 340.845 132.544 341.633 132.072C342.421 131.601 343.063 130.922 343.489 130.109L352.677 114.341C352.856 113.941 352.944 113.506 352.934 113.067C352.93 112.74 352.861 112.416 352.73 112.116C352.599 111.815 352.408 111.544 352.17 111.318C351.932 111.093 351.651 110.917 351.344 110.802C351.036 110.687 350.709 110.634 350.381 110.647H312.617L310.193 105.555H301.899ZM341.937 145.514C340.928 145.515 339.942 145.814 339.104 146.374C338.265 146.934 337.612 147.73 337.226 148.661C336.84 149.591 336.74 150.615 336.937 151.602C337.134 152.59 337.621 153.497 338.334 154.209C339.048 154.921 339.957 155.405 340.947 155.602C341.937 155.798 342.962 155.697 343.894 155.311C344.827 154.926 345.623 154.273 346.184 153.436C346.744 152.598 347.043 151.614 347.043 150.607C347.04 149.257 346.5 147.963 345.544 147.009C344.587 146.055 343.29 145.517 341.937 145.514V145.514Z" fill="#18AD6F"/>
<path d="M335.409 119.643H331.13V115.373H327.921V119.643H323.642V122.846H327.921V127.117H331.13V122.846H335.409V119.643Z" fill="white"/>
</g>
<defs>
<linearGradient id="paint0_linear" x1="218.367" y1="210.59" x2="218.367" y2="33.9988" gradientUnits="userSpaceOnUse">
<stop stop-color="#808080" stop-opacity="0.25"/>
<stop offset="0.54" stop-color="#808080" stop-opacity="0.12"/>
<stop offset="1" stop-color="#808080" stop-opacity="0.1"/>
</linearGradient>
<clipPath id="clip0">
<rect width="398" height="305" fill="white"/>
</clipPath>
</defs>
</svg>
