<svg width="373" height="204" viewBox="0 0 373 204" fill="none" xmlns="http://www.w3.org/2000/svg">
<g clip-path="url(#clip0)">
<path d="M329.139 162.643C353.363 162.643 373 143.01 373 118.791C373 94.5714 353.363 74.9379 329.139 74.9379C304.915 74.9379 285.277 94.5714 285.277 118.791C285.277 143.01 304.915 162.643 329.139 162.643Z" fill="#F2F2F2"/>
<path d="M322.007 156.226C346.231 156.226 365.868 136.592 365.868 112.373C365.868 88.1539 346.231 68.5205 322.007 68.5205C297.783 68.5205 278.145 88.1539 278.145 112.373C278.145 136.592 297.783 156.226 322.007 156.226Z" fill="#FB9449"/>
<path d="M311.716 203.171H255.227V203.84H311.716V203.171Z" fill="#3F3D56"/>
<path d="M228.935 149.452C228.935 119.374 253.41 94.9033 283.494 94.9033C313.578 94.9033 338.054 119.374 338.054 149.452C338.054 179.53 313.578 204 283.494 204C253.41 204 228.935 179.53 228.935 149.452ZM229.648 149.452C229.648 179.137 253.803 203.287 283.494 203.287C313.185 203.287 337.34 179.137 337.34 149.452C337.34 119.767 313.185 95.6164 283.494 95.6164C253.803 95.6164 229.648 119.767 229.648 149.452Z" fill="#3F3D56"/>
<path d="M240.346 51.6961L0.356643 16.0436L0.178345 203.398H311.844L240.346 51.6961ZM64.1874 121.219C64.067 121.219 63.9497 121.207 63.8308 121.201V135.48H25.3184V96.9748H40.2955C40.2955 95.1783 41.0093 93.4553 42.2799 92.1849C43.5505 90.9145 45.2739 90.2009 47.0708 90.2009C48.8677 90.2009 50.591 90.9145 51.8617 92.1849C53.1323 93.4553 53.8461 95.1783 53.8461 96.9748H63.8308V107.689C63.9497 107.682 64.067 107.671 64.1874 107.671C65.9843 107.671 67.7077 108.384 68.9783 109.655C70.2489 110.925 70.9627 112.648 70.9627 114.445C70.9627 116.241 70.2489 117.964 68.9783 119.234C67.7077 120.505 65.9843 121.219 64.1874 121.219V121.219ZM211.64 110.701C211.651 118.702 209.929 126.61 206.591 133.882C206.231 134.67 205.851 135.447 205.453 136.214C203.858 139.303 201.975 142.235 199.83 144.97C198.731 146.371 197.57 147.715 196.346 149.003C195.447 149.951 194.515 150.866 193.55 151.748C185.11 159.485 174.48 164.419 163.122 165.87C160.763 166.169 158.388 166.319 156.011 166.319C141.653 166.336 127.844 160.801 117.474 150.873C107.104 140.944 100.975 127.391 100.369 113.049C99.7632 98.7065 104.728 84.6854 114.224 73.9184C123.721 63.1515 137.013 56.4727 151.322 55.2792C151.447 55.2685 151.575 55.2578 151.703 55.2471C152.673 55.1723 153.654 55.1223 154.638 55.101C155.095 55.0903 155.551 55.0831 156.011 55.0831C159.122 55.0815 162.229 55.3403 165.297 55.8568C165.721 55.9245 166.142 56.003 166.563 56.0814C166.823 56.1313 167.08 56.1848 167.337 56.2383C179.856 58.8432 191.096 65.6802 199.165 75.5988C207.234 85.5175 211.639 97.9123 211.64 110.697V110.701Z" fill="#3F3D56"/>
<path d="M296.113 20.695H232.237V21.4125H296.113V20.695Z" fill="#3F3D56"/>
<path d="M296.113 25.7179H232.237V26.4355H296.113V25.7179Z" fill="#3F3D56"/>
<path d="M296.113 30.7409H232.237V31.4584H296.113V30.7409Z" fill="#3F3D56"/>
<path d="M312.379 203.932H0V0H312.379V203.932ZM0.713193 203.219H311.665V0.71305H0.713193V203.219Z" fill="#3F3D56"/>
<path d="M155.21 20.0198H155.21C144.448 22.9348 138.346 34.9784 141.581 46.9201L145.692 62.0921L150.359 60.828L151.538 54.4748L152.386 60.2791L182.385 52.1543L183.456 46.3787L184.227 51.6553L187.604 50.7406L184.377 38.8278C180.653 25.0861 167.595 16.6655 155.21 20.0198Z" fill="#2F2E41"/>
<path d="M194.502 146.956L190.936 166.208L202.704 164.426L203.239 144.282L194.502 146.956Z" fill="#FFB8B8"/>
<path d="M159.199 54.2595C166.289 54.2595 172.037 48.5131 172.037 41.4246C172.037 34.336 166.289 28.5896 159.199 28.5896C152.109 28.5896 146.362 34.336 146.362 41.4246C146.362 48.5131 152.109 54.2595 159.199 54.2595Z" fill="#FFB8B8"/>
<path d="M155.098 50.8726L154.385 58.0031L148.68 61.2118L163.657 94.3686L175.068 66.9162L167.579 61.2118L166.866 47.6638L155.098 50.8726Z" fill="#FFB8B8"/>
<path d="M225.526 130.556C225.077 137.972 212.442 143.829 203.164 147.145C200.489 148.104 198.093 148.849 196.346 149.359C195.258 149.676 194.423 149.905 193.931 150.036C193.607 150.122 193.432 150.165 193.432 150.165V142.321L163.121 144.817V166.226C160.763 166.526 158.388 166.676 156.011 166.675C146.638 166.69 137.415 164.326 129.206 159.805C129.002 157.128 128.778 154.39 128.532 151.591C128.268 148.575 128.154 145.708 128.164 142.992C128.25 121.746 135.999 109.614 139.069 105.642C139.453 105.131 139.863 104.64 140.299 104.173L142.082 99.5383L140.791 91.3096L136.434 63.5292L136.377 63.1727C137.874 61.8607 141.843 61.0228 145.267 60.5273C147.563 60.1921 149.617 60.0103 150.523 59.9354C150.808 59.914 150.979 59.9033 151.011 59.8998H151.015L165.618 86.3468L170.646 63.547L184.517 69.9467C184.517 69.9467 182.378 78.8598 182.378 86.3468C182.376 87.3479 182.246 88.3447 181.993 89.3131C181.399 91.4608 180.392 93.4722 179.029 95.235C177.835 96.8374 176.444 98.2832 174.889 99.5383L172.036 107.382L174.889 118.078L194.527 112.223L201.456 110.159C202.039 109.985 202.633 109.851 203.235 109.756C206.013 109.314 208.86 109.725 211.399 110.936C213.937 112.147 216.049 114.1 217.452 116.537L225.526 130.556Z" fill="#2F2E41"/>
<path d="M192.006 163C192.006 163 202.21 164 204.24 159.4L214.472 167.634C214.472 167.634 233.002 172.596 222.673 176.904C213.045 180.92 203.417 176.632 203.417 177.617C203.417 177.617 200.564 175.121 197.355 176.904C194.146 178.687 184.518 176.904 184.874 174.052C185.231 171.2 186.657 160.86 192.006 163Z" fill="#2F2E41"/>
<path d="M162.364 24.4756C159.725 22.4867 156.407 21.6728 153.185 22.5454L152.803 22.649C145.426 24.6469 141.254 32.9402 143.485 41.1726V41.1727L145.956 40.5032L145.533 37.3573L146.941 40.2366L161.601 36.2662L162.132 33.3635L162.522 36.0167L165.406 35.2356C168.562 41.5532 168.439 48.7589 165.036 56.8529L169.949 55.5223L171.013 49.717L171.791 55.0234L181.156 52.487L179.795 40.1658C177.397 31.3121 170.217 25.1979 162.364 24.4756Z" fill="#2F2E41"/>
<path d="M165.44 23.0635C168.985 23.0635 171.858 20.1903 171.858 16.6461C171.858 13.1018 168.985 10.2286 165.44 10.2286C161.895 10.2286 159.021 13.1018 159.021 16.6461C159.021 20.1903 161.895 23.0635 165.44 23.0635Z" fill="#2F2E41"/>
<path d="M165.083 20.2113C163.58 20.2122 162.124 19.6854 160.97 18.7229C159.816 17.7604 159.037 16.4233 158.768 14.9449C158.499 13.4664 158.758 11.9406 159.499 10.6335C160.241 9.32637 161.418 8.32104 162.825 7.79288C161.926 7.90815 161.062 8.21234 160.29 8.68545C159.518 9.15855 158.854 9.78984 158.343 10.5377C157.833 11.2857 157.486 12.1333 157.326 13.0247C157.167 13.9162 157.198 14.8313 157.418 15.7099C157.637 16.5885 158.041 17.4106 158.601 18.1221C159.162 18.8336 159.866 19.4184 160.669 19.838C161.472 20.2576 162.354 20.5024 163.258 20.5564C164.163 20.6104 165.068 20.4724 165.915 20.1514C165.639 20.1893 165.361 20.2093 165.083 20.2113V20.2113Z" fill="#2F2E41"/>
<path d="M167.401 43.742C168.287 43.742 169.006 42.7044 169.006 41.4246C169.006 40.1447 168.287 39.1071 167.401 39.1071C166.515 39.1071 165.796 40.1447 165.796 41.4246C165.796 42.7044 166.515 43.742 167.401 43.742Z" fill="#FFB8B8"/>
<path d="M132.454 84.5641L131.385 98.8251C131.385 98.8251 126.392 106.669 125.322 123.425L124.966 133.765C124.966 133.765 117.477 148.382 123.539 148.026C129.602 147.669 129.245 134.121 129.245 134.121L139.943 103.103V88.1293L132.454 84.5641Z" fill="#FFB8B8"/>
<path d="M138.873 63.5291H136.377C136.377 63.5291 132.454 66.0248 129.245 76.7205C126.036 87.4163 125.679 87.7728 125.679 87.7728L142.439 91.6946L138.873 63.5291Z" fill="#2F2E41"/>
<path d="M219.723 68.5172C221.518 68.5172 222.973 67.0625 222.973 65.268C222.973 63.4734 221.518 62.0187 219.723 62.0187C217.928 62.0187 216.473 63.4734 216.473 65.268C216.473 67.0625 217.928 68.5172 219.723 68.5172Z" fill="#D0CDE1"/>
<path d="M238.695 127.203C239.492 127.203 240.139 126.556 240.139 125.759C240.139 124.961 239.492 124.315 238.695 124.315C237.897 124.315 237.25 124.961 237.25 125.759C237.25 126.556 237.897 127.203 238.695 127.203Z" fill="#D0CDE1"/>
<path d="M218.368 194.586C219.166 194.586 219.813 193.94 219.813 193.142C219.813 192.344 219.166 191.698 218.368 191.698C217.571 191.698 216.924 192.344 216.924 193.142C216.924 193.94 217.571 194.586 218.368 194.586Z" fill="#D0CDE1"/>
<path d="M25.0932 190.308C25.8909 190.308 26.5376 189.661 26.5376 188.864C26.5376 188.066 25.8909 187.42 25.0932 187.42C24.2955 187.42 23.6488 188.066 23.6488 188.864C23.6488 189.661 24.2955 190.308 25.0932 190.308Z" fill="#D0CDE1"/>
<path d="M93.2032 66.9501C94.0009 66.9501 94.6476 66.3035 94.6476 65.506C94.6476 64.7084 94.0009 64.0619 93.2032 64.0619C92.4055 64.0619 91.7588 64.7084 91.7588 65.506C91.7588 66.3035 92.4055 66.9501 93.2032 66.9501Z" fill="#D0CDE1"/>
<path d="M239.498 91.4295H238.776V90.7075H238.414V91.4295H237.692V91.7906H238.414V92.5126H238.776V91.7906H239.498V91.4295Z" fill="#D0CDE1"/>
<path d="M264.103 159.169H263.381V158.447H263.02V159.169H262.297V159.53H263.02V160.252H263.381V159.53H264.103V159.169Z" fill="#D0CDE1"/>
<path d="M182.086 189.117H181.364V188.395H181.002V189.117H180.28V189.478H181.002V190.2H181.364V189.478H182.086V189.117Z" fill="#D0CDE1"/>
<path d="M135.015 49.3595H134.293V48.6375H133.932V49.3595H133.209V49.7206H133.932V50.4426H134.293V49.7206H135.015V49.3595Z" fill="#D0CDE1"/>
<path d="M7.35342 77.525H6.63131V76.803H6.27008V77.525H5.54797V77.8861H6.27008V78.6081H6.63131V77.8861H7.35342V77.525Z" fill="#D0CDE1"/>
<path d="M21.2606 52.2117H20.5385V51.4897H20.1773V52.2117H19.4552V52.5728H20.1773V53.2948H20.5385V52.5728H21.2606V52.2117Z" fill="#D0CDE1"/>
<path d="M122.178 190.187H121.455V189.465H121.094V190.187H120.372V190.548H121.094V191.27H121.455V190.548H122.178V190.187Z" fill="#D0CDE1"/>
<path d="M67.9748 41.1594H67.2527V40.4374H66.8914V41.1594H66.1693V41.5206H66.8914V42.2425H67.2527V41.5206H67.9748V41.1594Z" fill="#D0CDE1"/>
<path d="M8.42313 124.23H7.70102V123.508H7.33978V124.23H6.61768V124.591H7.33978V125.313H7.70102V124.591H8.42313V124.23Z" fill="#D0CDE1"/>
<path d="M62.9825 83.9424H62.2603V83.2205H61.8991V83.9424H61.177V84.3036H61.8991V85.0255H62.2603V84.3036H62.9825V83.9424Z" fill="#D0CDE1"/>
<path d="M64.0523 187.335H63.3302V186.613H62.9689V187.335H62.2468V187.696H62.9689V188.418H63.3302V187.696H64.0523V187.335Z" fill="#D0CDE1"/>
<path d="M96.5025 164.161H95.7804V163.439H95.4191V164.161H94.697V164.522H95.4191V165.244H95.7804V164.522H96.5025V164.161Z" fill="#D0CDE1"/>
<path d="M275.157 191.97H274.435V191.248H274.074V191.97H273.352V192.331H274.074V193.053H274.435V192.331H275.157V191.97Z" fill="#D0CDE1"/>
<path d="M9.6281 11.0523C11.5975 11.0523 13.1941 9.45607 13.1941 7.48703C13.1941 5.518 11.5975 3.92178 9.6281 3.92178C7.65867 3.92178 6.06213 5.518 6.06213 7.48703C6.06213 9.45607 7.65867 11.0523 9.6281 11.0523Z" fill="#FB9449"/>
<path d="M20.326 11.0523C22.2954 11.0523 23.8919 9.45607 23.8919 7.48703C23.8919 5.518 22.2954 3.92178 20.326 3.92178C18.3565 3.92178 16.76 5.518 16.76 7.48703C16.76 9.45607 18.3565 11.0523 20.326 11.0523Z" fill="#FB9449"/>
<path d="M31.0238 11.0523C32.9933 11.0523 34.5898 9.45607 34.5898 7.48703C34.5898 5.518 32.9933 3.92178 31.0238 3.92178C29.0544 3.92178 27.4579 5.518 27.4579 7.48703C27.4579 9.45607 29.0544 11.0523 31.0238 11.0523Z" fill="#FB9449"/>
<path d="M235.135 177.629H171.259V178.347H235.135V177.629Z" fill="#D0CDE1"/>
<path d="M206.826 128.349H168.314V166.854H206.826V128.349Z" fill="#FB9449"/>
<path d="M175.802 158.297V128.349H175.089V159.01H206.826V158.297H175.802Z" fill="#D0CDE1"/>
<path d="M190.936 83.4945L196.642 97.399C196.642 97.399 202.704 104.529 203.774 112.373L205.557 121.643C205.557 121.643 209.836 138.043 203.061 137.33C196.285 136.617 198.068 120.93 198.068 120.93L196.998 116.295L190.936 106.312L181.991 89.3129L190.936 83.4945Z" fill="#FFB8B8"/>
<path d="M179.882 68.5206L184.518 69.9467L194.502 84.9207L176.316 97.0426L179.882 68.5206Z" fill="#2F2E41"/>
<path d="M189.709 152.593C194.633 152.593 198.624 148.602 198.624 143.68C198.624 138.757 194.633 134.766 189.709 134.766C184.786 134.766 180.794 138.757 180.794 143.68C180.794 148.602 184.786 152.593 189.709 152.593Z" fill="#D0CDE1"/>
<path d="M187.57 134.053C191.312 134.053 194.345 131.021 194.345 127.279C194.345 123.538 191.312 120.505 187.57 120.505C183.828 120.505 180.794 123.538 180.794 127.279C180.794 131.021 183.828 134.053 187.57 134.053Z" fill="#FB9449"/>
<path d="M206.826 152.949C210.568 152.949 213.601 149.916 213.601 146.175C213.601 142.434 210.568 139.401 206.826 139.401C203.084 139.401 200.051 142.434 200.051 146.175C200.051 149.916 203.084 152.949 206.826 152.949Z" fill="#FB9449"/>
</g>
<defs>
<clipPath id="clip0">
<rect width="373" height="204" fill="white"/>
</clipPath>
</defs>
</svg>
