<svg width="306" height="255" viewBox="0 0 306 255" fill="none" xmlns="http://www.w3.org/2000/svg">
<g opacity="0.7">
<path opacity="0.7" d="M193.351 114.78C193.378 106.712 191.448 98.7576 187.728 91.6005C185.962 88.2395 184.351 86.1501 183.098 84.8686C182.625 84.3667 182.008 84.0251 181.332 83.8916C180.656 83.758 179.955 83.8391 179.327 84.1236C178.826 84.3008 178.373 84.5934 178.004 84.9779C176.327 86.7163 174.813 89.0144 173.49 91.4614C169.576 98.7857 167.545 106.97 167.579 115.276V120.263H164.384V62.3154C164.384 50.1695 161.669 38.1859 156.35 27.5467C153.83 22.5102 151.531 19.381 149.762 17.4572C149.333 16.9681 148.805 16.5762 148.213 16.3078C147.621 16.0393 146.979 15.9005 146.329 15.9005C145.679 15.9005 145.036 16.0393 144.444 16.3078C143.852 16.5762 143.324 16.9681 142.896 17.4572C140.501 20.0632 138.341 23.5069 136.453 27.1692C130.86 38.027 128.019 50.3483 128.019 62.8551V120.263H125.257V115.038C125.291 106.732 123.26 98.5473 119.347 91.223C118.024 88.7793 116.509 86.4812 114.832 84.7395C114.349 84.2305 113.717 83.8882 113.028 83.7621C112.338 83.6359 111.626 83.7323 110.995 84.0375L111.111 84.1004C110.706 84.2796 110.34 84.536 110.033 84.8554C108.792 86.1368 107.182 88.2263 105.402 91.5873C101.682 98.7444 99.7529 106.698 99.7796 114.766V201.403H109.636L108.561 208.526V229.821H116.618V208.526L115.543 201.403H125.257V122.505H128.019V201.049H135.89L134.759 208.523V229.821H142.82V208.526L141.688 201.052H152.295L151.164 208.526V229.821H159.225V208.526L158.093 201.052H164.378V122.505H167.573V201.522H170.162V201.403H178.725L177.65 208.526V229.821H185.711V208.526L184.636 201.403H193.351V114.78Z" fill="url(#paint0_linear)"/>
</g>
<path d="M118.222 204.374H110.592L111.954 195.099H116.859L118.222 204.374Z" fill="#535461"/>
<g opacity="0.1">
<path opacity="0.1" d="M111.574 198.781H117.24L116.859 196.188H111.954L111.574 198.781Z" fill="black"/>
</g>
<path d="M183.63 204.374H176L177.363 195.099H182.268L183.63 204.374Z" fill="#535461"/>
<g opacity="0.1">
<path opacity="0.1" d="M176.982 198.781H182.648L182.268 196.188H177.363L176.982 198.781Z" fill="black"/>
</g>
<path d="M143.025 204.374H135.391L136.754 195.099H141.662L143.025 204.374Z" fill="#535461"/>
<g opacity="0.1">
<path opacity="0.1" d="M136.373 198.781H142.042L141.662 196.188H136.754L136.373 198.781Z" fill="black"/>
</g>
<path d="M158.556 204.374H150.926L152.289 195.099H157.194L158.556 204.374Z" fill="#535461"/>
<g opacity="0.1">
<path opacity="0.1" d="M151.909 198.781H157.577L157.194 196.188H152.289L151.909 198.781Z" fill="black"/>
</g>
<path d="M172.729 118.425H118.222V120.608H172.729V118.425Z" fill="#535461"/>
<path d="M181.156 83.9448C180.868 83.6265 180.517 83.3721 180.125 83.1979C179.733 83.0238 179.308 82.9339 178.879 82.9339C178.45 82.9339 178.026 83.0238 177.634 83.1979C177.242 83.3721 176.89 83.6265 176.602 83.9448C175.014 85.6369 173.582 87.8753 172.329 90.2561C168.619 97.4159 166.7 105.37 166.736 113.435V197.44H190.857V113.088C190.888 105.243 189.062 97.5031 185.529 90.5012C183.855 87.2296 182.331 85.1932 181.156 83.9448Z" fill="#E0E0E0"/>
<path d="M111.987 83.9448C112.275 83.6265 112.627 83.3721 113.019 83.1979C113.411 83.0238 113.836 82.9339 114.265 82.9339C114.694 82.9339 115.118 83.0238 115.51 83.1979C115.902 83.3721 116.254 83.6265 116.542 83.9448C118.129 85.6369 119.562 87.8753 120.815 90.2561C124.524 97.4159 126.444 105.37 126.408 113.435V197.44H102.28V113.088C102.25 105.243 104.076 97.5031 107.608 90.5012C109.279 87.2296 110.803 85.1932 111.987 83.9448Z" fill="#E0E0E0"/>
<path d="M102.416 114.879L108.138 114.905V121.972H102.416V114.879Z" fill="#535461"/>
<path d="M120.676 114.879L126.398 114.905V121.972H120.676V114.879Z" fill="#535461"/>
<path d="M166.733 114.879L172.458 114.905V121.972H166.733V114.879Z" fill="#535461"/>
<path d="M184.993 114.879L190.718 114.905V121.972H184.993V114.879Z" fill="#535461"/>
<g opacity="0.1">
<path opacity="0.1" d="M120.805 90.1469C119.555 87.7661 118.119 85.5276 116.532 83.8355C116.083 83.3395 115.485 83.004 114.828 82.8802C114.171 82.7564 113.492 82.8512 112.894 83.1501C113.238 83.3223 113.55 83.5543 113.813 83.8355C115.401 85.5276 116.833 87.7661 118.086 90.1469C121.796 97.3066 123.715 105.26 123.679 113.326V197.324H126.405V113.336C126.44 105.266 124.518 97.309 120.805 90.1469V90.1469Z" fill="black"/>
</g>
<g opacity="0.1">
<path opacity="0.1" d="M174.498 90.3787C175.749 87.9979 177.184 85.7594 178.772 84.0673C179.069 83.7471 179.428 83.4903 179.827 83.3124C179.237 83.0539 178.581 82.9877 177.952 83.1232C177.323 83.2587 176.752 83.589 176.321 84.0673C174.733 85.7594 173.301 87.9979 172.048 90.3787C168.338 97.5384 166.419 105.492 166.455 113.558V197.556H168.909V113.571C168.87 105.501 170.788 97.5427 174.498 90.3787V90.3787Z" fill="black"/>
</g>
<path d="M118.222 204.374H110.592V225.109H118.222V204.374Z" fill="url(#paint1_linear)"/>
<path d="M143.021 204.374H135.391V225.109H143.021V204.374Z" fill="url(#paint2_linear)"/>
<path d="M158.556 204.374H150.926V225.109H158.556V204.374Z" fill="url(#paint3_linear)"/>
<path d="M183.63 204.374H176V225.109H183.63V204.374Z" fill="url(#paint4_linear)"/>
<path d="M149.593 18.083C149.195 17.6087 148.697 17.2273 148.136 16.9657C147.575 16.7041 146.963 16.5686 146.344 16.5686C145.725 16.5686 145.113 16.7041 144.552 16.9657C143.99 17.2273 143.493 17.6087 143.094 18.083C140.829 20.6195 138.794 23.9738 136.995 27.5434C131.703 38.1197 129.011 50.1232 129.011 62.2955V197.095H163.438V61.7525C163.438 49.9245 160.868 38.2422 155.831 27.9076C153.447 23.0036 151.27 19.9572 149.593 18.083Z" fill="#EEEEEE"/>
<path d="M151.33 33.0567H140.643C138.634 33.0567 137.005 34.6875 137.005 36.6992V37.6561C137.005 39.6678 138.634 41.2985 140.643 41.2985H151.33C153.339 41.2985 154.968 39.6678 154.968 37.6561V36.6992C154.968 34.6875 153.339 33.0567 151.33 33.0567Z" fill="#63C7FF"/>
<g opacity="0.7">
<path opacity="0.7" d="M226.426 222.844C225.296 216.025 221.641 209.882 216.189 205.64C210.737 201.398 203.889 199.369 197.01 199.957C190.13 200.544 183.724 203.706 179.069 208.811C174.414 213.916 171.852 220.59 171.892 227.503C171.892 227.639 171.892 227.771 171.892 227.907C170.877 228.061 169.872 228.277 168.882 228.553C167.615 223.501 164.811 218.969 160.857 215.584C156.904 212.198 151.997 210.128 146.816 209.658C141.634 209.188 136.436 210.343 131.939 212.963C127.442 215.582 123.871 219.536 121.718 224.278C119.499 223.421 117.169 222.888 114.799 222.695V222.695C114.421 220.546 113.787 218.451 112.91 216.453C112.499 210.15 109.729 204.235 105.154 199.886C100.578 195.538 94.5331 193.076 88.2248 192.992C81.9165 192.909 75.8087 195.209 71.1198 199.435C66.4309 203.661 63.5057 209.501 62.9278 215.791C61.6292 218.544 60.7997 221.496 60.4737 224.523C54.7324 226.914 50.0824 231.355 47.4248 236.983C44.7672 242.611 44.2914 249.027 46.0895 254.987H247.044C248.092 251.511 248.374 247.848 247.872 244.253C247.37 240.657 246.095 237.213 244.135 234.157C242.175 231.102 239.577 228.509 236.52 226.556C233.463 224.603 230.019 223.336 226.426 222.844V222.844Z" fill="url(#paint5_linear)"/>
</g>
<path d="M90.1979 242.447C103.501 242.447 114.286 231.65 114.286 218.331C114.286 205.012 103.501 194.214 90.1979 194.214C76.8943 194.214 66.1096 205.012 66.1096 218.331C66.1096 231.65 76.8943 242.447 90.1979 242.447Z" fill="url(#paint6_linear)"/>
<path d="M90.0788 253.781C104.646 253.781 116.456 241.958 116.456 227.374C116.456 212.789 104.646 200.966 90.0788 200.966C75.5112 200.966 63.7018 212.789 63.7018 227.374C63.7018 241.958 75.5112 253.781 90.0788 253.781Z" fill="url(#paint7_linear)"/>
<path d="M197.274 253.781C211.841 253.781 223.651 241.958 223.651 227.374C223.651 212.789 211.841 200.966 197.274 200.966C182.706 200.966 170.897 212.789 170.897 227.374C170.897 241.958 182.706 253.781 197.274 253.781Z" fill="url(#paint8_linear)"/>
<path d="M195.947 253.781C209.251 253.781 220.036 242.984 220.036 229.665C220.036 216.346 209.251 205.549 195.947 205.549C182.644 205.549 171.859 216.346 171.859 229.665C171.859 242.984 182.644 253.781 195.947 253.781Z" fill="url(#paint9_linear)"/>
<path d="M168.727 234.248C168.731 238.062 167.83 241.822 166.098 245.218C164.366 248.615 161.852 251.551 158.765 253.785H130.509C127.165 251.365 124.497 248.125 122.762 244.377C121.027 240.629 120.282 236.498 120.598 232.379C120.915 228.26 122.283 224.291 124.571 220.853C126.86 217.415 129.991 214.623 133.666 212.744C137.341 210.866 141.436 209.963 145.56 210.123C149.683 210.283 153.696 211.501 157.215 213.659C160.733 215.817 163.639 218.844 165.655 222.449C167.67 226.054 168.727 230.117 168.724 234.248H168.727Z" fill="url(#paint10_linear)"/>
<path d="M198.6 251.613C198.6 252.334 198.568 253.049 198.504 253.755C198.507 253.765 198.507 253.775 198.504 253.785H150.519C150.453 253.069 150.42 252.344 150.42 251.616C150.416 245.845 152.481 240.264 156.239 235.889C159.998 231.514 165.2 228.634 170.9 227.774C172.091 227.595 173.294 227.504 174.498 227.503C175.114 227.503 175.726 227.526 176.331 227.569C180.648 227.9 184.797 229.388 188.341 231.879C191.886 234.369 194.695 237.769 196.473 241.722C196.572 241.94 196.668 242.162 196.758 242.384C197.974 245.308 198.6 248.445 198.6 251.613V251.613Z" fill="url(#paint11_linear)"/>
<path d="M244.127 246.788C244.13 249.157 243.782 251.514 243.095 253.781H196.989C195.875 250.073 195.662 246.151 196.371 242.344C196.41 242.136 196.45 241.924 196.496 241.718C197.657 236.327 200.628 231.496 204.914 228.031C209.2 224.566 214.543 222.675 220.052 222.675C220.81 222.675 221.554 222.708 222.291 222.781C222.622 222.808 222.953 222.847 223.284 222.89C229.057 223.677 234.35 226.531 238.182 230.925C242.015 235.319 244.127 240.955 244.127 246.788V246.788Z" fill="url(#paint12_linear)"/>
<path d="M96.1546 253.785C96.234 253.533 96.3034 253.281 96.3729 253.026C97.4694 248.92 97.4634 244.597 96.3554 240.494C95.2474 236.392 93.0767 232.654 90.0629 229.661C87.0492 226.668 83.2992 224.524 79.1924 223.447C75.0855 222.371 70.7675 222.399 66.6751 223.529C65.7169 223.793 64.7767 224.118 63.8605 224.503C58.3438 226.801 53.8758 231.067 51.3227 236.476C48.7695 241.884 48.3131 248.049 50.0419 253.775H96.1546V253.785Z" fill="url(#paint13_linear)"/>
<g opacity="0.7">
<path opacity="0.7" d="M234.972 204.185C237.413 204.185 239.391 202.204 239.391 199.761C239.391 197.318 237.413 195.337 234.972 195.337C232.532 195.337 230.553 197.318 230.553 199.761C230.553 202.204 232.532 204.185 234.972 204.185Z" fill="url(#paint14_linear)"/>
</g>
<path d="M234.972 203.86C237.234 203.86 239.067 202.025 239.067 199.761C239.067 197.497 237.234 195.661 234.972 195.661C232.711 195.661 230.878 197.497 230.878 199.761C230.878 202.025 232.711 203.86 234.972 203.86Z" fill="url(#paint15_linear)"/>
<g opacity="0.7">
<path opacity="0.7" d="M255.207 247.271C257.869 247.271 260.026 245.111 260.026 242.447C260.026 239.782 257.869 237.622 255.207 237.622C252.546 237.622 250.388 239.782 250.388 242.447C250.388 245.111 252.546 247.271 255.207 247.271Z" fill="url(#paint16_linear)"/>
</g>
<path d="M255.207 247.03C257.735 247.03 259.785 244.978 259.785 242.447C259.785 239.916 257.735 237.864 255.207 237.864C252.679 237.864 250.63 239.916 250.63 242.447C250.63 244.978 252.679 247.03 255.207 247.03Z" fill="url(#paint17_linear)"/>
<g opacity="0.7">
<path opacity="0.7" d="M49.0067 220.255C51.9312 220.255 54.3019 217.881 54.3019 214.953C54.3019 212.025 51.9312 209.652 49.0067 209.652C46.0822 209.652 43.7114 212.025 43.7114 214.953C43.7114 217.881 46.0822 220.255 49.0067 220.255Z" fill="url(#paint18_linear)"/>
</g>
<path d="M49.0067 220.016C51.7997 220.016 54.0638 217.749 54.0638 214.953C54.0638 212.157 51.7997 209.89 49.0067 209.89C46.2137 209.89 43.9496 212.157 43.9496 214.953C43.9496 217.749 46.2137 220.016 49.0067 220.016Z" fill="url(#paint19_linear)"/>
<g opacity="0.4">
<path opacity="0.4" d="M248.496 5.78485C247.323 4.23206 245.852 2.92859 244.17 1.95037C242.241 0.840331 240.083 0.188923 237.862 0.0464058C235.641 -0.0961113 233.417 0.274075 231.362 1.1284C229.307 1.98272 227.475 3.29834 226.008 4.97373C224.542 6.64913 223.479 8.63951 222.902 10.7913C222.326 12.9431 222.251 15.1987 222.683 17.3842C223.115 19.5696 224.043 21.6265 225.395 23.396C226.747 25.1655 228.487 26.6004 230.481 27.5899C232.474 28.5794 234.669 29.0971 236.894 29.103C237.201 29.103 237.509 29.103 237.813 29.0732C240.431 28.9079 242.956 28.0357 245.119 26.5492C247.281 25.0627 249.002 23.0176 250.097 20.6309C251.192 18.2442 251.62 15.6052 251.337 12.9942C251.055 10.3831 250.07 7.89751 248.49 5.80141L248.496 5.78485Z" fill="url(#paint20_linear)"/>
</g>
<path opacity="0.2" d="M250.63 14.5432C250.63 18.0381 249.3 21.4019 246.912 23.9503C244.523 26.4988 241.254 28.0405 237.77 28.2619C237.483 28.2818 237.191 28.2917 236.9 28.2917C234.795 28.2905 232.718 27.8046 230.831 26.8715C228.943 25.9385 227.295 24.5833 226.014 22.9107C224.733 21.2382 223.853 19.2931 223.443 17.2259C223.032 15.1586 223.102 13.0246 223.647 10.9887C224.192 8.95285 225.197 7.06972 226.585 5.48492C227.973 3.90011 229.706 2.65608 231.651 1.84899C233.596 1.04191 235.7 0.693398 237.801 0.830401C239.902 0.967405 241.943 1.58625 243.767 2.6391V2.6391C245.357 3.56392 246.748 4.7965 247.858 6.26498V6.26498C249.661 8.64708 250.634 11.5547 250.63 14.5432V14.5432Z" fill="#63C7FF"/>
<path opacity="0.05" d="M233.52 5.82457C232.811 6.1309 232.126 6.49181 231.473 6.90406C231.036 7.14639 230.662 7.48636 230.378 7.89745C230.24 8.10363 230.163 8.34544 230.159 8.59388C230.154 8.84233 230.221 9.08686 230.352 9.29813C230.682 9.75509 231.344 9.82794 231.896 9.85774C232.404 9.96568 232.931 9.93671 233.424 9.77381C233.917 9.61091 234.357 9.31991 234.701 8.93057L235.882 7.85771C236.292 7.48685 236.742 6.9736 236.563 6.45041C236.427 6.04974 235.978 5.85438 235.571 5.78815C234.556 5.58819 233.503 5.77351 232.617 6.30802" fill="#F55F44"/>
<path opacity="0.05" d="M228.589 20.6923C228.987 20.6923 229.31 20.3691 229.31 19.9705C229.31 19.5718 228.987 19.2486 228.589 19.2486C228.191 19.2486 227.868 19.5718 227.868 19.9705C227.868 20.3691 228.191 20.6923 228.589 20.6923Z" fill="#F55F44"/>
<path opacity="0.05" d="M243.284 18.04C244.747 18.04 245.933 16.8525 245.933 15.3876C245.933 13.9228 244.747 12.7353 243.284 12.7353C241.821 12.7353 240.635 13.9228 240.635 15.3876C240.635 16.8525 241.821 18.04 243.284 18.04Z" fill="#F55F44"/>
<path opacity="0.05" d="M247.861 6.26166C247.851 6.9547 247.642 7.63016 247.259 8.20773C246.876 8.7853 246.336 9.2407 245.702 9.51978C245.069 9.79886 244.368 9.8899 243.684 9.78206C243 9.67422 242.362 9.37205 241.845 8.91146C241.327 8.45087 240.953 7.85124 240.766 7.18385C240.579 6.51646 240.587 5.80938 240.79 5.14667C240.993 4.48395 241.382 3.89347 241.91 3.44543C242.438 2.99739 243.084 2.71063 243.77 2.61923V2.61923C245.362 3.5489 246.753 4.78721 247.861 6.26166V6.26166Z" fill="#F55F44"/>
<path opacity="0.05" d="M248.126 22.4605C246.945 24.1431 245.401 25.5382 243.608 26.5424C241.816 27.5466 239.82 28.1343 237.77 28.2619C237.754 28.0732 237.744 27.8811 237.744 27.6891C237.744 26.4826 238.079 25.2999 238.712 24.2729C239.344 23.2459 240.249 22.415 241.326 21.8728C242.403 21.3306 243.608 21.0985 244.809 21.2023C246.01 21.306 247.158 21.7417 248.126 22.4605V22.4605Z" fill="#F55F44"/>
<path opacity="0.25" d="M239.067 115.836C239.998 115.836 240.754 115.08 240.754 114.147C240.754 113.214 239.998 112.458 239.067 112.458C238.135 112.458 237.38 113.214 237.38 114.147C237.38 115.08 238.135 115.836 239.067 115.836Z" fill="#535461"/>
<path opacity="0.25" d="M14.1592 160.207C15.0908 160.207 15.8461 159.451 15.8461 158.519C15.8461 157.586 15.0908 156.83 14.1592 156.83C13.2277 156.83 12.4724 157.586 12.4724 158.519C12.4724 159.451 13.2277 160.207 14.1592 160.207Z" fill="#535461"/>
<path opacity="0.25" d="M304.224 169.81C305.156 169.81 305.911 169.054 305.911 168.121C305.911 167.189 305.156 166.433 304.224 166.433C303.292 166.433 302.537 167.189 302.537 168.121C302.537 169.054 303.292 169.81 304.224 169.81Z" fill="#535461"/>
<path opacity="0.25" d="M95.4964 89.7892C96.428 89.7892 97.1832 89.0332 97.1832 88.1005C97.1832 87.1678 96.428 86.4117 95.4964 86.4117C94.5648 86.4117 93.8096 87.1678 93.8096 88.1005C93.8096 89.0332 94.5648 89.7892 95.4964 89.7892Z" fill="#535461"/>
<path opacity="0.25" d="M89.9564 50.9609C90.888 50.9609 91.6432 50.2048 91.6432 49.2722C91.6432 48.3395 90.888 47.5834 89.9564 47.5834C89.0248 47.5834 88.2696 48.3395 88.2696 49.2722C88.2696 50.2048 89.0248 50.9609 89.9564 50.9609Z" fill="#535461"/>
<path opacity="0.25" d="M42.2595 127.892C43.1911 127.892 43.9463 127.136 43.9463 126.204C43.9463 125.271 43.1911 124.515 42.2595 124.515C41.3279 124.515 40.5727 125.271 40.5727 126.204C40.5727 127.136 41.3279 127.892 42.2595 127.892Z" fill="#535461"/>
<path opacity="0.25" d="M280.863 128.187H279.362V126.687H278.75V128.187H277.248V128.803H278.75V130.303H279.362V128.803H280.863V128.187Z" fill="#535461"/>
<path opacity="0.25" d="M306 76.1997H304.498V74.6996H303.887V76.1997H302.385V76.8156H303.887V78.3156H304.498V76.8156H306V76.1997Z" fill="#535461"/>
<path opacity="0.25" d="M198.961 47.1562H197.459V45.6529H196.847V47.1562H195.345V47.7688H196.847V49.2722H197.459V47.7688H198.961V47.1562Z" fill="#535461"/>
<path opacity="0.25" d="M264.481 119.747H262.98V118.247H262.368V119.747H260.87V120.362H262.368V121.863H262.98V120.362H264.481V119.747Z" fill="#535461"/>
<path opacity="0.25" d="M209.558 169.668H208.059V168.168H207.448V169.668H205.946V170.284H207.448V171.784H208.059V170.284H209.558V169.668Z" fill="#535461"/>
<path opacity="0.25" d="M55.873 66.6896H54.3714V65.1896H53.7595V66.6896H52.2579V67.3022H53.7595V68.8055H54.3714V67.3022H55.873V66.6896Z" fill="#535461"/>
<path opacity="0.25" d="M3.61506 86.2263H2.11347V84.7263H1.50159V86.2263H0V86.8389H1.50159V88.3422H2.11347V86.8389H3.61506V86.2263Z" fill="#535461"/>
<path opacity="0.25" d="M76.5876 147.724H75.086V146.22H74.4742V147.724H72.9759V148.336H74.4742V149.84H75.086V148.336H76.5876V147.724Z" fill="#535461"/>
<path d="M255.207 247.03C257.735 247.03 259.785 244.978 259.785 242.447C259.785 239.916 257.735 237.864 255.207 237.864C252.679 237.864 250.63 239.916 250.63 242.447C250.63 244.978 252.679 247.03 255.207 247.03Z" fill="url(#paint21_linear)"/>
<g opacity="0.4">
<path opacity="0.4" d="M88.9576 115.339C88.3987 114.599 87.6982 113.978 86.897 113.511C85.9781 112.976 84.9483 112.66 83.8875 112.587C82.8267 112.515 81.7635 112.688 80.7804 113.093C79.7974 113.499 78.9208 114.126 78.2189 114.925C77.517 115.725 77.0086 116.676 76.7332 117.704C76.4578 118.732 76.4227 119.81 76.6308 120.854C76.8388 121.898 77.2843 122.879 77.9328 123.723C78.5813 124.567 79.4152 125.249 80.3698 125.718C81.3245 126.187 82.3742 126.429 83.4374 126.425C83.5829 126.425 83.7318 126.425 83.874 126.425C85.1203 126.346 86.3219 125.93 87.3511 125.221C88.3804 124.513 89.199 123.539 89.7202 122.403C90.2414 121.267 90.4457 120.011 90.3114 118.768C90.1772 117.525 89.7093 116.341 88.9576 115.343V115.339Z" fill="url(#paint22_linear)"/>
</g>
<path opacity="0.2" d="M89.973 119.511C89.973 121.176 89.3396 122.778 88.2017 123.992C87.0638 125.205 85.5069 125.939 83.8476 126.045C83.712 126.045 83.5731 126.045 83.4341 126.045C82.4317 126.044 81.4429 125.812 80.5442 125.367C79.6454 124.923 78.8608 124.277 78.251 123.481C77.6412 122.684 77.2224 121.758 77.0272 120.773C76.8319 119.789 76.8653 118.773 77.1248 117.803C77.3844 116.834 77.863 115.937 78.5239 115.183C79.1847 114.428 80.01 113.836 80.936 113.451C81.862 113.067 82.8639 112.901 83.8642 112.966C84.8646 113.031 85.8366 113.325 86.7052 113.826V113.826C87.4622 114.266 88.1244 114.853 88.6533 115.551V115.551C89.5153 116.691 89.9791 118.082 89.973 119.511V119.511Z" fill="#63C7FF"/>
<path opacity="0.1" d="M81.8233 115.359C81.4797 115.504 81.1479 115.676 80.8311 115.872C80.6235 115.986 80.4447 116.146 80.3085 116.339C80.2455 116.438 80.212 116.553 80.212 116.67C80.212 116.788 80.2455 116.903 80.3085 117.002C80.4047 117.096 80.52 117.169 80.6467 117.214C80.7735 117.26 80.9085 117.278 81.0428 117.266C81.2825 117.316 81.5309 117.301 81.7631 117.223C81.9953 117.146 82.2031 117.009 82.3657 116.826L82.928 116.316C83.1232 116.137 83.3381 115.896 83.2588 115.654C83.2144 115.562 83.1473 115.484 83.0639 115.426C82.9805 115.368 82.8836 115.332 82.7825 115.323C82.2994 115.228 81.7984 115.317 81.3768 115.571" fill="#F55F44"/>
<path opacity="0.1" d="M79.4751 122.439C79.665 122.439 79.819 122.284 79.819 122.094C79.819 121.904 79.665 121.75 79.4751 121.75C79.2851 121.75 79.1311 121.904 79.1311 122.094C79.1311 122.284 79.2851 122.439 79.4751 122.439Z" fill="#F55F44"/>
<path opacity="0.1" d="M86.4737 121.177C87.1714 121.177 87.7371 120.611 87.7371 119.912C87.7371 119.214 87.1714 118.647 86.4737 118.647C85.7759 118.647 85.2102 119.214 85.2102 119.912C85.2102 120.611 85.7759 121.177 86.4737 121.177Z" fill="#F55F44"/>
<path opacity="0.1" d="M88.6533 115.581C88.6491 115.911 88.5504 116.232 88.3689 116.508C88.1873 116.783 87.9306 117 87.6293 117.134C87.328 117.267 86.9947 117.311 86.6692 117.26C86.3436 117.21 86.0394 117.067 85.7928 116.848C85.5463 116.629 85.3676 116.344 85.2782 116.026C85.1888 115.709 85.1924 115.372 85.2885 115.057C85.3846 114.741 85.5692 114.46 85.8204 114.247C86.0715 114.033 86.3786 113.896 86.7052 113.852V113.852C87.4625 114.294 88.1247 114.881 88.6533 115.581V115.581Z" fill="#F55F44"/>
<path opacity="0.1" d="M88.7823 123.283C88.2201 124.085 87.4849 124.749 86.6312 125.228C85.7776 125.707 84.8273 125.987 83.8508 126.048C83.8508 125.959 83.8508 125.866 83.8508 125.773C83.849 125.196 84.0081 124.629 84.3102 124.138C84.6123 123.646 85.0455 123.248 85.561 122.99C86.0765 122.731 86.6539 122.621 87.2283 122.673C87.8026 122.725 88.3511 122.936 88.812 123.283H88.7823Z" fill="#F55F44"/>
<g opacity="0.1">
<path opacity="0.1" d="M163.253 66.9048H129.186V68.2294H163.253V66.9048Z" fill="black"/>
</g>
<defs>
<linearGradient id="paint0_linear" x1="146.567" y1="229.821" x2="146.567" y2="15.9108" gradientUnits="userSpaceOnUse">
<stop stop-color="#808080" stop-opacity="0.25"/>
<stop offset="0.54" stop-color="#808080" stop-opacity="0.12"/>
<stop offset="1" stop-color="#808080" stop-opacity="0.1"/>
</linearGradient>
<linearGradient id="paint1_linear" x1="114.405" y1="204.374" x2="114.405" y2="225.112" gradientUnits="userSpaceOnUse">
<stop stop-color="#E0E0E0"/>
<stop offset="0.31" stop-color="#FCCC63"/>
<stop offset="0.77" stop-color="#F55F44"/>
</linearGradient>
<linearGradient id="paint2_linear" x1="3346.92" y1="13002.2" x2="3346.92" y2="14300.9" gradientUnits="userSpaceOnUse">
<stop stop-color="#E0E0E0"/>
<stop offset="0.31" stop-color="#FCCC63"/>
<stop offset="0.77" stop-color="#F55F44"/>
</linearGradient>
<linearGradient id="paint3_linear" x1="3720.84" y1="13002.2" x2="3720.84" y2="14300.9" gradientUnits="userSpaceOnUse">
<stop stop-color="#E0E0E0"/>
<stop offset="0.31" stop-color="#FCCC63"/>
<stop offset="0.77" stop-color="#F55F44"/>
</linearGradient>
<linearGradient id="paint4_linear" x1="4324.37" y1="13002.2" x2="4324.37" y2="14300.9" gradientUnits="userSpaceOnUse">
<stop stop-color="#E0E0E0"/>
<stop offset="0.31" stop-color="#FCCC63"/>
<stop offset="0.77" stop-color="#F55F44"/>
</linearGradient>
<linearGradient id="paint5_linear" x1="117953" y1="51963.2" x2="117953" y2="40353.7" gradientUnits="userSpaceOnUse">
<stop stop-color="#808080" stop-opacity="0.25"/>
<stop offset="0.54" stop-color="#808080" stop-opacity="0.12"/>
<stop offset="1" stop-color="#808080" stop-opacity="0.1"/>
</linearGradient>
<linearGradient id="paint6_linear" x1="90.1979" y1="194.214" x2="90.1979" y2="242.447" gradientUnits="userSpaceOnUse">
<stop stop-color="#F2F2F2"/>
<stop offset="0.31" stop-color="#E6E6E6"/>
<stop offset="0.77" stop-color="#CCCCCC"/>
</linearGradient>
<linearGradient id="paint7_linear" x1="14431.3" y1="32255.1" x2="14431.3" y2="40679.1" gradientUnits="userSpaceOnUse">
<stop stop-color="#F2F2F2"/>
<stop offset="0.31" stop-color="#E6E6E6"/>
<stop offset="0.77" stop-color="#CCCCCC"/>
</linearGradient>
<linearGradient id="paint8_linear" x1="31636.1" y1="32255.1" x2="31636.1" y2="40679.1" gradientUnits="userSpaceOnUse">
<stop stop-color="#F2F2F2"/>
<stop offset="0.31" stop-color="#E6E6E6"/>
<stop offset="0.77" stop-color="#CCCCCC"/>
</linearGradient>
<linearGradient id="paint9_linear" x1="28713.6" y1="30145.8" x2="28713.6" y2="37171.3" gradientUnits="userSpaceOnUse">
<stop stop-color="#F2F2F2"/>
<stop offset="0.31" stop-color="#E6E6E6"/>
<stop offset="0.77" stop-color="#CCCCCC"/>
</linearGradient>
<linearGradient id="paint10_linear" x1="27821.9" y1="30765.7" x2="27821.9" y2="36524" gradientUnits="userSpaceOnUse">
<stop stop-color="#F2F2F2"/>
<stop offset="0.31" stop-color="#E6E6E6"/>
<stop offset="0.77" stop-color="#CCCCCC"/>
</linearGradient>
<linearGradient id="paint11_linear" x1="32191.4" y1="19990.9" x2="32191.4" y2="22077.4" gradientUnits="userSpaceOnUse">
<stop stop-color="#F2F2F2"/>
<stop offset="0.31" stop-color="#E6E6E6"/>
<stop offset="0.77" stop-color="#CCCCCC"/>
</linearGradient>
<linearGradient id="paint12_linear" x1="38858.6" y1="23160.8" x2="38858.6" y2="26083.6" gradientUnits="userSpaceOnUse">
<stop stop-color="#F2F2F2"/>
<stop offset="0.31" stop-color="#E6E6E6"/>
<stop offset="0.77" stop-color="#CCCCCC"/>
</linearGradient>
<linearGradient id="paint13_linear" x1="17317.3" y1="23174.2" x2="17317.3" y2="26098.6" gradientUnits="userSpaceOnUse">
<stop stop-color="#F2F2F2"/>
<stop offset="0.31" stop-color="#E6E6E6"/>
<stop offset="0.77" stop-color="#CCCCCC"/>
</linearGradient>
<linearGradient id="paint14_linear" x1="6509.01" y1="5651.16" x2="6509.01" y2="5414.75" gradientUnits="userSpaceOnUse">
<stop stop-color="#808080" stop-opacity="0.25"/>
<stop offset="0.54" stop-color="#808080" stop-opacity="0.12"/>
<stop offset="1" stop-color="#808080" stop-opacity="0.1"/>
</linearGradient>
<linearGradient id="paint15_linear" x1="6048.79" y1="5040.25" x2="6048.79" y2="5243.25" gradientUnits="userSpaceOnUse">
<stop stop-color="#F2F2F2"/>
<stop offset="0.31" stop-color="#E6E6E6"/>
<stop offset="0.77" stop-color="#CCCCCC"/>
</linearGradient>
<linearGradient id="paint16_linear" x1="7687.14" y1="7443.12" x2="7687.14" y2="7162.04" gradientUnits="userSpaceOnUse">
<stop stop-color="#808080" stop-opacity="0.25"/>
<stop offset="0.54" stop-color="#808080" stop-opacity="0.12"/>
<stop offset="1" stop-color="#808080" stop-opacity="0.1"/>
</linearGradient>
<linearGradient id="paint17_linear" x1="255.207" y1="237.864" x2="255.207" y2="247.03" gradientUnits="userSpaceOnUse">
<stop stop-color="#F2F2F2"/>
<stop offset="0.31" stop-color="#E0E0E0"/>
<stop offset="0.77" stop-color="#B3B3B3"/>
</linearGradient>
<linearGradient id="paint18_linear" x1="1612.91" y1="7262.19" x2="1612.91" y2="6922.69" gradientUnits="userSpaceOnUse">
<stop stop-color="#808080" stop-opacity="0.25"/>
<stop offset="0.54" stop-color="#808080" stop-opacity="0.12"/>
<stop offset="1" stop-color="#808080" stop-opacity="0.1"/>
</linearGradient>
<linearGradient id="paint19_linear" x1="1542.57" y1="6628.34" x2="1542.57" y2="6938.1" gradientUnits="userSpaceOnUse">
<stop stop-color="#F2F2F2"/>
<stop offset="0.31" stop-color="#E6E6E6"/>
<stop offset="0.77" stop-color="#CCCCCC"/>
</linearGradient>
<linearGradient id="paint20_linear" x1="24992.5" y1="4444.13" x2="24992.5" y2="1889.18" gradientUnits="userSpaceOnUse">
<stop stop-color="#808080" stop-opacity="0.25"/>
<stop offset="0.54" stop-color="#808080" stop-opacity="0.12"/>
<stop offset="1" stop-color="#808080" stop-opacity="0.1"/>
</linearGradient>
<linearGradient id="paint21_linear" x1="7314.75" y1="6821.94" x2="7314.75" y2="7075.64" gradientUnits="userSpaceOnUse">
<stop stop-color="#F2F2F2"/>
<stop offset="0.31" stop-color="#E6E6E6"/>
<stop offset="0.77" stop-color="#CCCCCC"/>
</linearGradient>
<linearGradient id="paint22_linear" x1="5475.19" y1="6302.62" x2="5475.19" y2="5722.95" gradientUnits="userSpaceOnUse">
<stop stop-color="#808080" stop-opacity="0.25"/>
<stop offset="0.54" stop-color="#808080" stop-opacity="0.12"/>
<stop offset="1" stop-color="#808080" stop-opacity="0.1"/>
</linearGradient>
</defs>
</svg>
